<?xml version="1.0" standalone="no"?>
<!DOCTYPE svg PUBLIC "-//W3C//DTD SVG 20010904//EN"
 "http://www.w3.org/TR/2001/REC-SVG-20010904/DTD/svg10.dtd">
<svg version="1.0" xmlns="http://www.w3.org/2000/svg"
 width="16.000000pt" height="16.000000pt" viewBox="0 0 16.000000 16.000000"
 preserveAspectRatio="xMidYMid meet">
<metadata>
Created by potrace 1.11, written by Peter Selinger 2001-2013
</metadata>
<g transform="translate(0.000000,16.000000) scale(0.002980,-0.002980)"
fill="#000000" stroke="none">
<path d="M4928 5275 c5 -103 -8 -173 -39 -200 -16 -16 -20 -16 -41 -1 -40 28
-80 20 -160 -34 -116 -79 -140 -105 -142 -153 0 -24 4 -42 12 -45 6 -2 12 -8
12 -13 0 -6 16 -31 35 -56 20 -26 38 -57 41 -70 4 -13 14 -23 24 -23 10 0 21
-8 24 -18 3 -9 20 -33 38 -52 17 -19 31 -37 31 -40 0 -3 4 -16 9 -30 6 -14 15
-41 20 -60 27 -102 29 -112 17 -126 -22 -27 -1 -26 95 5 53 17 109 31 125 31
34 0 84 33 123 81 29 36 29 38 29 165 0 147 -26 292 -86 479 -20 61 -39 142
-42 183 l-6 72 -62 0 -62 0 5 -95z"/>
<path d="M1983 4729 c-18 -23 -93 -175 -93 -190 0 -8 -15 -39 -32 -69 -29 -49
-33 -52 -36 -30 -2 14 -10 28 -17 33 -8 4 -19 33 -25 65 -7 31 -17 66 -22 76
-10 19 -11 18 -24 -6 -7 -13 -22 -69 -33 -124 -11 -54 -28 -121 -37 -147 -14
-42 -20 -48 -38 -43 -11 3 -24 6 -28 6 -4 0 -28 27 -52 60 -69 95 -208 250
-238 266 -56 29 -76 7 -39 -44 16 -23 68 -124 130 -251 9 -18 23 -36 32 -40
30 -11 84 -67 104 -106 11 -22 35 -54 53 -72 31 -32 46 -82 29 -100 -4 -3 -31
19 -60 49 -29 31 -78 69 -109 84 -34 17 -66 43 -80 64 -35 52 -56 51 -60 -2
-4 -55 -25 -60 -83 -19 -50 36 -213 116 -221 109 -2 -3 39 -35 93 -71 54 -36
124 -89 155 -119 32 -29 79 -72 104 -96 l48 -43 11 27 c10 25 11 25 25 9 8
-10 15 -41 15 -74 1 -31 9 -76 19 -100 12 -32 13 -47 5 -52 -13 -8 -86 31
-120 64 -13 13 -40 34 -59 47 -19 13 -52 39 -74 59 -27 25 -35 29 -27 14 6
-12 23 -31 38 -43 15 -12 47 -44 71 -72 52 -62 46 -79 -23 -60 -51 13 -105 16
-105 5 0 -5 33 -38 73 -75 l73 -66 305 4 c403 6 469 11 469 33 0 9 8 26 18 37
9 10 16 29 14 41 -5 34 15 61 60 84 23 12 50 31 59 43 25 30 24 78 -2 94 -18
11 -20 20 -14 60 4 36 0 64 -18 117 l-24 70 -37 -77 c-30 -63 -36 -84 -30
-113 6 -32 3 -39 -39 -80 -24 -25 -50 -45 -56 -45 -27 0 -23 36 12 101 28 50
37 79 37 113 0 40 5 51 38 84 20 21 46 54 56 74 19 36 19 39 3 91 -12 39 -37
77 -87 135 -69 80 -69 80 -64 129 5 38 2 53 -13 72 -15 19 -21 21 -30 10z
m-593 -588 c0 -10 -7 -24 -16 -31 -12 -11 -18 -10 -31 3 -21 21 -9 47 22 47
18 0 25 -5 25 -19z"/>
<path d="M3422 4655 c-43 -30 -55 -47 -77 -115 -24 -75 -80 -150 -110 -150
-30 0 -34 7 -40 71 -6 62 -13 72 -47 64 -44 -11 -53 -45 -52 -195 2 -189 5
-204 51 -218 20 -6 39 -9 41 -7 3 2 -1 17 -7 33 -12 30 -6 82 10 82 5 0 9 5 9
11 0 22 83 128 108 139 15 6 43 33 62 61 19 28 59 84 88 125 52 72 62 109 32
109 -8 0 -19 3 -25 7 -5 3 -25 -5 -43 -17z"/>
<path d="M2276 4421 c-4 -5 -4 -15 -1 -23 3 -7 -5 -35 -19 -62 -17 -34 -20
-46 -9 -42 8 3 18 6 23 6 5 0 16 7 24 16 21 21 22 114 2 114 -8 0 -17 -4 -20
-9z"/>
<path d="M4525 4202 c-10 -2 -33 -17 -50 -34 -102 -98 -101 -96 -49 -156 48
-56 81 -72 165 -79 91 -8 86 -27 -8 -31 -60 -2 -74 -7 -93 -27 -29 -31 -37
-31 -71 1 -25 24 -31 25 -60 15 -73 -25 -94 -10 -64 49 8 16 12 36 9 44 -5 14
-9 14 -35 1 -34 -18 -62 -91 -39 -105 7 -4 19 -6 25 -3 18 6 28 -74 15 -117
-5 -19 -10 -38 -10 -43 0 -4 156 -6 346 -5 l345 3 18 52 c20 58 47 86 106 106
22 8 56 20 75 27 19 7 53 17 75 22 22 6 47 14 55 19 8 5 22 12 30 16 28 13 60
58 57 82 -2 22 -7 24 -50 24 -29 0 -56 -6 -66 -15 -22 -19 -77 -38 -108 -38
-14 0 -44 12 -69 26 -40 23 -47 25 -81 14 -21 -7 -48 -21 -60 -32 -12 -11 -36
-21 -54 -21 -28 -2 -35 3 -46 28 -28 62 -39 78 -63 94 -13 9 -21 11 -17 4 4
-7 5 -24 1 -38 -8 -33 -51 -35 -59 -2 -4 14 -21 28 -51 41 -27 11 -50 29 -59
46 -16 31 -30 38 -60 32z m-17 -85 c-2 -3 7 -13 19 -22 12 -8 20 -23 18 -32
-2 -10 -4 -21 -4 -25 -1 -4 -15 -14 -31 -23 -35 -18 -65 -8 -75 26 -5 16 1 29
26 54 31 29 56 41 47 22z m334 -154 c24 -22 23 -60 -2 -68 -21 -7 -87 10 -104
26 -15 13 34 59 62 59 14 0 34 -7 44 -17z"/>
<path d="M3840 4151 c0 -6 -6 -11 -14 -11 -8 0 -18 -9 -21 -20 -3 -11 -15 -25
-25 -30 -11 -6 -24 -20 -30 -31 -10 -18 -8 -19 13 -17 34 5 55 24 62 59 4 16
14 33 22 38 11 6 12 10 4 15 -6 4 -11 2 -11 -3z"/>
<path d="M3550 4130 c-9 -6 -10 -10 -3 -10 6 0 15 5 18 10 8 12 4 12 -15 0z"/>
<path d="M3065 4080 c-3 -5 -3 -14 0 -20 3 -5 1 -10 -5 -10 -6 0 -8 -4 -5 -10
10 -16 34 -12 52 10 10 12 30 20 47 20 37 0 31 7 -12 15 -24 4 -32 2 -32 -10
0 -8 -4 -15 -10 -15 -5 0 -10 7 -10 15 0 17 -16 20 -25 5z"/>
<path d="M3625 4050 c-17 -19 -19 -19 -31 -2 -17 24 -27 10 -15 -22 13 -33 34
-33 60 0 34 43 22 63 -14 24z"/>
<path d="M3010 3977 c0 -21 4 -24 22 -19 20 5 21 2 15 -35 -6 -32 -3 -42 9
-47 24 -9 26 -8 19 14 -3 11 -3 25 1 31 10 17 24 -10 24 -50 0 -31 2 -33 28
-28 21 4 38 -3 75 -31 26 -20 47 -39 47 -43 0 -12 -22 -23 -47 -24 -18 0 -22
3 -17 17 3 10 3 18 1 18 -10 0 -35 -90 -27 -95 4 -3 24 2 44 10 19 8 47 15 61
15 25 0 34 14 15 25 -22 13 -8 23 25 18 23 -4 35 -2 35 6 0 6 7 11 15 11 8 0
15 3 15 8 1 22 44 54 82 61 40 8 41 9 10 10 -18 1 -42 -4 -54 -10 -11 -6 -22
-8 -26 -5 -11 12 16 28 54 33 33 4 44 0 68 -22 l29 -27 -34 -26 c-72 -57 -82
-69 -76 -85 5 -12 19 -17 51 -17 63 0 81 28 73 110 l-7 59 25 -11 c19 -9 27
-7 41 7 17 17 18 17 25 -1 4 -11 1 -29 -7 -41 -11 -18 -12 -23 -2 -23 7 -1 3
-9 -9 -19 -27 -23 -28 -25 -7 -46 14 -13 19 -14 25 -3 7 11 11 10 19 -2 9 -13
13 -11 31 10 l21 25 -6 -27 c-5 -21 -3 -28 9 -28 8 0 15 3 15 8 0 4 9 18 19
31 l18 23 42 -22 c56 -28 91 -20 132 31 17 22 27 39 23 38 -22 -4 -33 2 -28
16 5 12 -1 14 -28 11 -19 -3 -40 -1 -47 4 -7 4 -36 1 -65 -6 -28 -8 -52 -14
-52 -14 -1 0 -5 7 -8 16 -4 11 -1 14 12 10 24 -8 57 27 48 50 -3 9 -1 23 6 31
10 12 7 18 -12 33 -22 17 -28 17 -46 5 -20 -13 -22 -12 -27 7 -5 18 -8 19 -22
8 -13 -11 -18 -11 -24 -2 -9 15 -37 6 -45 -14 -3 -8 -14 -14 -25 -14 -21 0
-39 -39 -27 -59 4 -5 2 -12 -3 -15 -5 -4 -15 10 -22 29 -10 28 -17 34 -32 29
-16 -5 -18 -2 -12 15 4 14 2 21 -7 21 -24 0 -36 -15 -40 -49 -4 -41 -19 -49
-44 -24 -12 13 -19 14 -22 5 -2 -6 -15 -12 -29 -12 -22 0 -25 3 -21 30 3 17 1
30 -4 30 -4 0 -8 -4 -8 -10 0 -5 -11 -10 -25 -10 -16 0 -25 -6 -25 -15 0 -12
-4 -13 -19 -5 -11 5 -26 7 -34 4 -10 -4 -16 5 -21 32 -7 33 -10 36 -35 31 -24
-5 -81 3 -133 19 -14 4 -18 0 -18 -19z m355 -157 c-3 -5 -12 -10 -18 -10 -7 0
-6 4 3 10 19 12 23 12 15 0z"/>
<path d="M2871 3969 c-23 -19 -23 -20 -5 -33 24 -18 44 -9 44 19 0 33 -11 36
-39 14z"/>
<path d="M590 3969 c0 -5 5 -7 10 -4 6 3 10 8 10 11 0 2 -4 4 -10 4 -5 0 -10
-5 -10 -11z"/>
<path d="M2730 3950 c20 -13 33 -13 25 0 -3 6 -14 10 -23 10 -15 0 -15 -2 -2
-10z"/>
<path d="M3848 3949 c-10 -6 -18 -20 -18 -31 l0 -22 21 22 c24 27 22 45 -3 31z"/>
<path d="M2658 3933 c7 -3 16 -2 19 1 4 3 -2 6 -13 5 -11 0 -14 -3 -6 -6z"/>
<path d="M2595 3885 c-16 -14 -37 -23 -45 -19 -9 3 -5 -5 8 -18 18 -18 26 -20
40 -12 9 6 17 18 17 26 0 9 6 23 14 32 20 24 0 19 -34 -9z"/>
<path d="M2810 3860 c0 -27 4 -50 9 -50 4 0 6 11 4 24 -6 29 24 50 59 41 23
-6 68 18 56 30 -3 3 -25 1 -48 -5 -30 -8 -46 -8 -53 -1 -20 20 -27 11 -27 -39z"/>
<path d="M2710 3866 c0 -18 29 -29 45 -16 6 5 15 7 18 3 4 -3 7 -2 7 4 0 10
-31 23 -57 23 -7 0 -13 -6 -13 -14z"/>
<path d="M2287 3843 c-12 -11 -8 -21 13 -26 15 -4 20 0 20 14 0 18 -20 26 -33
12z"/>
<path d="M2958 3822 c-30 -6 -20 -19 12 -14 17 2 30 6 30 7 0 6 -26 11 -42 7z"/>
<path d="M2741 3806 c-6 -7 -6 -17 -1 -26 7 -11 10 -12 10 -2 0 9 7 11 20 7
25 -8 25 -4 1 17 -15 13 -22 14 -30 4z"/>
<path d="M3432 3812 c-13 -4 -23 -10 -23 -14 1 -5 1 -12 1 -18 0 -5 7 -6 17
-3 12 5 14 3 9 -8 -4 -8 1 -4 11 7 10 12 27 26 38 32 19 11 19 11 -5 11 -14
-1 -35 -4 -48 -7z"/>
<path d="M2617 3772 c-10 -10 -14 -22 -10 -25 3 -4 13 2 21 14 18 26 10 35
-11 11z"/>
<path d="M3136 3775 c-3 -8 -1 -15 3 -15 5 0 11 7 15 15 3 8 1 15 -3 15 -5 0
-11 -7 -15 -15z"/>
<path d="M2685 3770 c-4 -6 6 -10 22 -10 22 0 25 2 13 10 -19 12 -27 12 -35 0z"/>
<path d="M892 3719 c-22 -27 -28 -29 -92 -29 -64 0 -68 -1 -72 -25 l-5 -25
151 0 c83 0 157 4 165 9 10 7 11 13 1 32 -39 76 -105 93 -148 38z"/>
<path d="M2534 3734 c3 -9 6 -22 6 -30 0 -8 7 -14 16 -14 9 0 13 5 10 13 -3 6
-9 20 -12 30 -4 9 -11 17 -16 17 -6 0 -7 -7 -4 -16z"/>
<path d="M2886 3743 c-4 -4 -13 -8 -19 -8 -55 -3 -109 -20 -118 -37 -6 -11 -8
-22 -5 -25 9 -9 356 9 350 19 -3 5 -21 6 -39 2 -28 -5 -38 -2 -57 19 -23 26
-96 46 -112 30z m51 -45 c-3 -7 -5 -2 -5 12 0 14 2 19 5 13 2 -7 2 -19 0 -25z"/>
<path d="M3000 3730 c0 -5 9 -10 20 -10 11 0 20 5 20 10 0 6 -9 10 -20 10 -11
0 -20 -4 -20 -10z"/>
<path d="M2484 3704 c3 -9 6 -18 6 -20 0 -2 7 -4 15 -4 18 0 19 12 3 28 -17
17 -31 15 -24 -4z"/>
<path d="M4128 3713 c7 -3 16 -2 19 1 4 3 -2 6 -13 5 -11 0 -14 -3 -6 -6z"/>
<path d="M5330 3700 c-12 -8 -9 -10 13 -10 15 0 27 5 27 10 0 13 -20 13 -40 0z"/>
<path d="M5198 3685 c-3 -3 -33 -6 -67 -6 -92 -2 -63 -14 37 -15 48 -1 113 -5
145 -8 36 -4 57 -3 57 4 0 5 -13 10 -29 10 -16 0 -31 6 -34 13 -3 9 -10 9 -32
-3 -22 -12 -29 -12 -32 -2 -5 12 -35 17 -45 7z"/>
<path d="M4428 3665 c-3 -2 -155 -5 -1148 -20 -162 -3 -362 -7 -445 -10 -158
-5 -480 -11 -1130 -20 -214 -3 -444 -8 -510 -10 -66 -2 -338 -9 -605 -15 -267
-6 -496 -14 -510 -17 -67 -15 33 -21 275 -18 l260 4 -172 -12 c-94 -7 -174
-14 -177 -17 -9 -10 298 0 340 11 31 8 57 8 100 -1 44 -9 143 -11 379 -6 176
4 541 11 810 16 270 6 535 12 590 16 55 3 307 7 560 9 875 7 1500 17 1510 25
23 18 74 21 109 6 20 -8 36 -18 36 -21 0 -3 -4 -3 -10 0 -5 3 -10 -1 -10 -9 0
-13 -12 -16 -54 -16 -30 0 -66 -4 -80 -10 l-25 -9 23 -50 c26 -57 75 -125 84
-117 3 4 -5 20 -17 37 l-23 31 24 25 c12 14 46 36 73 49 28 13 43 24 34 24 -9
0 -19 7 -23 15 -5 13 21 15 192 17 l197 2 -190 6 c-159 4 -179 6 -120 12 39 5
166 8 284 8 183 0 215 -2 225 -16 8 -11 24 -14 51 -12 39 4 39 4 15 15 -24 11
-24 12 -2 12 31 1 27 18 -7 26 -29 6 -423 2 -1366 -15 -641 -11 -820 -11 -785
-1 14 4 176 11 360 15 184 4 533 11 775 16 242 5 457 10 478 10 20 0 37 5 37
10 0 7 -70 10 -204 9 -113 0 -206 -2 -208 -4z m-1269 -59 c-7 -7 -287 -16
-694 -22 -220 -3 -699 -12 -1065 -19 -366 -8 -681 -10 -700 -6 -31 6 437 18
1715 40 533 10 749 12 744 7z"/>
<path d="M4850 3660 c0 -11 105 -8 116 3 4 4 -20 7 -54 7 -34 0 -62 -4 -62
-10z"/>
<path d="M4570 3590 c-19 -10 -786 -29 -1475 -35 -275 -2 -583 -7 -685 -10
-215 -7 -1641 -32 -1745 -31 -123 1 -400 -16 -410 -25 -5 -6 60 -8 165 -7 96
2 178 7 181 11 9 12 85 21 106 12 10 -4 112 -7 228 -6 298 2 1334 20 1493 25
83 3 130 2 127 -4 -4 -6 -72 -10 -157 -10 l-151 0 21 -23 c26 -27 30 -59 7
-51 -10 4 -15 0 -15 -11 0 -15 -3 -15 -15 -5 -9 7 -18 10 -22 7 -12 -13 -33
16 -33 44 0 21 -5 29 -17 29 -16 0 -18 -10 -15 -105 3 -100 2 -107 -20 -125
-13 -10 -19 -22 -15 -26 4 -5 12 -2 17 6 8 12 10 11 10 -7 0 -19 -3 -21 -29
-13 -15 4 -34 4 -42 0 -7 -5 -21 -4 -30 1 -16 8 -17 6 -9 -22 5 -18 8 -35 5
-38 -2 -4 10 -8 26 -9 34 -3 39 15 7 27 -15 5 -18 10 -9 15 17 11 61 -32 54
-51 -3 -8 4 -23 15 -33 21 -20 21 -19 25 13 l4 32 1 -33 2 -33 157 3 158 3 6
30 7 30 1 -27 c1 -32 31 -44 85 -34 19 4 119 7 223 6 103 0 220 3 260 6 63 6
72 9 76 28 l4 21 2 -21 c0 -12 8 -24 15 -27 8 -3 78 -3 155 0 l141 6 1 91 2
91 7 -81 c4 -45 11 -87 15 -94 6 -10 67 -11 284 -5 152 4 281 11 288 17 7 5
12 5 15 -3 3 -8 29 -9 96 -4 65 5 90 10 84 19 -6 10 -38 126 -73 265 -8 31
-14 40 -20 30 -6 -9 -9 0 -9 29 0 39 2 42 28 42 15 0 40 -7 57 -16 27 -14 30
-14 42 2 7 10 13 22 13 27 0 9 -457 5 -995 -8 -285 -7 -566 -8 -572 -1 -4 3
29 6 73 6 43 0 252 4 464 10 212 5 558 11 770 15 435 6 520 11 558 31 15 8 20
14 12 14 -8 0 -22 -5 -30 -10z m-1915 -61 c-56 -11 -87 -11 -80 1 3 6 32 9 63
9 57 -1 57 -1 17 -10z m-171 -55 c4 -15 5 -29 1 -32 -3 -3 -5 0 -5 7 0 9 -12
12 -39 9 -44 -4 -44 -3 -4 23 37 24 40 23 47 -7z m1663 -76 c-3 -7 -5 -2 -5
12 0 14 2 19 5 13 2 -7 2 -19 0 -25z m-53 6 c22 -22 20 -29 -9 -30 -26 -2 -29
3 -19 30 8 20 9 20 28 0z m-24 -58 c0 -26 23 -30 42 -6 14 17 18 19 18 6 0 -9
5 -16 10 -16 6 0 10 -8 10 -17 0 -15 -2 -16 -10 -3 -6 10 -10 0 -12 -35 l-3
-50 -20 32 c-11 18 -25 33 -32 33 -7 0 -10 7 -6 18 5 14 3 15 -8 5 -21 -21
-34 -15 -15 6 10 11 15 25 11 30 -3 6 -1 11 4 11 6 0 11 -6 11 -14z m108 -101
c-3 -3 -9 2 -12 12 -6 14 -5 15 5 6 7 -7 10 -15 7 -18z m-48 -54 c0 -10 -7
-24 -15 -31 -12 -10 -15 -10 -15 3 0 23 11 47 21 47 5 0 9 -8 9 -19z m-1796
-29 l15 -28 -42 -1 -41 -1 27 16 c15 9 25 22 22 29 -9 24 4 13 19 -15z m1463
6 c-3 -8 -6 -5 -6 6 -1 11 2 17 5 13 3 -3 4 -12 1 -19z m-1548 -31 c14 -17 4
-27 -26 -27 -16 0 -23 6 -23 20 0 23 31 27 49 7z"/>
<path d="M4776 3543 c-3 -4 -6 -47 -7 -97 -1 -50 -4 -137 -8 -193 -6 -99 -3
-113 24 -113 5 0 14 113 19 261 5 111 3 138 -8 142 -8 3 -17 3 -20 0z"/>
<path d="M5086 3398 c-4 -84 -9 -174 -13 -199 -5 -41 -3 -47 16 -52 19 -5 21
-1 22 36 0 23 2 60 4 82 2 22 6 95 9 163 5 114 5 122 -13 122 -17 0 -19 -13
-25 -152z"/>
<path d="M5250 3531 c0 -25 6 -27 13 -6 4 8 2 17 -3 20 -6 4 -10 -3 -10 -14z"/>
<path d="M4437 3428 c-11 -191 -9 -288 7 -288 20 0 26 54 26 238 0 129 -3 162
-13 162 -11 0 -16 -28 -20 -112z"/>
<path d="M5058 3533 c7 -3 16 -2 19 1 4 3 -2 6 -13 5 -11 0 -14 -3 -6 -6z"/>
<path d="M5345 3523 c-4 -10 -11 -83 -15 -163 -12 -194 -12 -210 0 -210 6 0
10 37 11 88 1 48 4 134 8 192 4 58 6 106 5 108 -1 2 -5 -5 -9 -15z"/>
<path d="M108 3523 c29 -2 74 -2 100 0 26 2 2 3 -53 3 -55 0 -76 -1 -47 -3z"/>
<path d="M110 3489 c-16 -4 1 -7 48 -8 39 -1 72 3 72 7 0 10 -86 11 -120 1z"/>
<path d="M1807 3493 c-2 -1 -264 -5 -908 -12 l-46 -1 5 -195 c5 -189 4 -194
-15 -191 -11 3 -25 1 -32 -3 -20 -13 12 -21 55 -14 l36 6 -6 56 c-12 100 -18
331 -9 331 15 0 100 -57 161 -108 32 -26 76 -55 99 -66 l41 -18 7 -83 c4 -46
4 -88 1 -93 -6 -9 32 -29 38 -20 2 1 -3 75 -10 163 -7 88 -13 176 -12 195 l0
35 8 -30 c4 -16 8 -67 9 -111 1 -66 5 -86 22 -108 22 -28 39 -34 39 -12 0 7 7
19 15 26 23 19 45 -5 45 -51 l0 -38 45 20 c27 12 61 19 83 17 33 -3 37 -6 34
-27 -4 -25 15 -71 30 -71 4 0 8 24 8 54 l0 53 53 10 c28 6 94 8 145 5 l92 -4
0 -49 c0 -57 18 -72 83 -67 33 2 43 7 45 23 2 11 9 25 16 30 18 14 29 52 17
59 -5 3 -34 -17 -65 -45 l-55 -50 -7 25 c-8 31 2 60 17 51 16 -11 56 32 54 58
-1 12 8 36 21 54 18 23 24 45 24 82 0 27 -5 53 -11 56 -6 4 -7 19 -4 37 l7 30
-87 -4 c-47 -2 -87 -4 -88 -5z m30 -155 c-2 -29 -3 -8 -3 47 0 55 1 79 3 53 2
-26 2 -71 0 -100z m-330 50 c-2 -18 -4 -6 -4 27 0 33 2 48 4 33 2 -15 2 -42 0
-60z m-310 -50 c-2 -13 -4 -3 -4 22 0 25 2 35 4 23 2 -13 2 -33 0 -45z m340
30 c-3 -7 -5 -2 -5 12 0 14 2 19 5 13 2 -7 2 -19 0 -25z m12 -73 c0 -26 -2
-27 -9 -10 -5 11 -9 31 -9 45 -1 20 1 22 9 10 5 -8 9 -28 9 -45z m318 13 c-3
-7 -5 -2 -5 12 0 14 2 19 5 13 2 -7 2 -19 0 -25z m-350 -10 c-3 -8 -6 -5 -6 6
-1 11 2 17 5 13 3 -3 4 -12 1 -19z"/>
<path d="M5295 3490 c-3 -5 -1 -10 4 -10 6 0 11 5 11 10 0 6 -2 10 -4 10 -3 0
-8 -4 -11 -10z"/>
<path d="M530 3386 c0 -58 -4 -87 -13 -95 -8 -6 -17 -8 -20 -4 -11 11 -38 -19
-32 -37 3 -10 -5 -26 -20 -40 -31 -29 -44 -20 -21 15 9 14 15 25 14 26 -20 8
-79 4 -101 -8 -16 -8 -35 -12 -42 -9 -16 6 -25 -14 -25 -54 0 -16 -4 -32 -10
-35 -6 -4 -10 7 -10 27 0 18 -5 90 -11 161 -10 100 -15 127 -27 127 -15 0 -15
-11 4 -308 l6 -92 157 2 c149 3 156 4 153 23 -2 19 -2 19 11 3 25 -32 40 -22
33 20 -4 20 -9 110 -13 200 -5 126 -9 162 -20 162 -10 0 -13 -20 -13 -84z
m-180 -202 c0 -8 6 -11 15 -8 15 6 21 -7 9 -19 -7 -7 -74 44 -74 55 0 4 11 2
25 -4 14 -6 25 -17 25 -24z m137 -46 c-3 -8 -6 -5 -6 6 -1 11 2 17 5 13 3 -3
4 -12 1 -19z m-127 -15 c0 -22 -12 -43 -26 -43 -7 0 -11 6 -8 14 3 9 -3 17
-15 21 -33 10 -24 24 14 22 19 -1 35 -7 35 -14z"/>
<path d="M58 3453 c-29 -4 -29 -10 -11 -93 5 -24 6 -24 18 10 7 19 10 38 8 43
-2 4 1 7 6 7 6 0 11 -12 11 -27 0 -38 15 -61 24 -38 3 9 6 27 6 41 0 14 5 22
13 19 6 -2 20 7 30 20 l18 25 -48 -1 c-26 -1 -60 -4 -75 -6z"/>
<path d="M0 3393 c0 -68 8 -66 16 5 3 34 2 52 -5 52 -7 0 -11 -23 -11 -57z"/>
<path d="M2128 3414 c-5 -26 2 -64 13 -64 12 0 11 51 0 69 -7 11 -10 10 -13
-5z"/>
<path d="M582 3347 c-7 -8 -9 -38 -5 -83 l6 -70 41 1 c22 1 49 5 60 10 11 5
26 4 37 -3 50 -32 66 4 22 50 -22 23 -24 30 -13 43 7 8 11 17 9 18 -4 3 -107
37 -135 45 -6 1 -16 -3 -22 -11z"/>
<path d="M5360 3235 l0 -94 -36 -7 c-22 -4 -31 -10 -24 -14 9 -6 9 -9 -1 -13
-8 -3 -2 -6 13 -6 14 -1 33 -4 42 -7 9 -3 16 -1 16 5 0 6 -10 11 -22 12 l-23
0 23 11 c21 10 22 17 22 110 0 54 -2 98 -5 98 -3 0 -5 -43 -5 -95z"/>
<path d="M2098 3293 c7 -3 16 -2 19 1 4 3 -2 6 -13 5 -11 0 -14 -3 -6 -6z"/>
<path d="M12 3205 c0 -50 3 -81 7 -70 4 11 4 52 1 90 l-7 70 -1 -90z"/>
<path d="M1995 3250 c3 -5 8 -10 11 -10 2 0 4 5 4 10 0 6 -5 10 -11 10 -5 0
-7 -4 -4 -10z"/>
<path d="M2048 3127 c-5 -25 -3 -27 31 -26 30 1 32 2 12 8 -13 3 -27 15 -31
26 -6 17 -7 16 -12 -8z"/>
<path d="M4669 3110 c-425 -9 -943 -18 -1384 -25 -2441 -41 -3210 -59 -3222
-78 -4 -7 43 -8 143 -4 82 4 484 13 894 22 410 8 858 17 995 19 577 13 1731
35 2120 41 187 3 446 8 575 11 129 4 253 6 275 6 31 -1 36 1 20 8 -11 5 -27 8
-35 8 -8 -1 -180 -5 -381 -8z"/>
<path d="M5178 3113 c12 -2 32 -2 45 0 12 2 2 4 -23 4 -25 0 -35 -2 -22 -4z"/>
<path d="M1015 3090 c-4 -6 12 -10 42 -9 36 0 43 3 28 9 -28 12 -63 12 -70 0z"/>
<path d="M4007 3064 c-1 -1 -189 -4 -417 -8 -228 -3 -480 -8 -560 -11 -196 -6
-821 -18 -895 -17 -33 1 -53 -1 -45 -4 8 -3 22 -8 30 -11 8 -4 18 -7 22 -7 11
-2 22 -16 12 -16 -13 0 -9 -116 5 -153 6 -16 11 -69 11 -118 l0 -89 -55 -26
c-46 -21 -68 -24 -130 -22 -41 1 -80 5 -86 8 -6 4 -9 27 -7 51 3 42 4 43 48
56 25 7 62 15 83 18 38 6 38 6 23 30 -9 13 -16 30 -16 38 0 10 -12 13 -37 12
-53 -2 -70 18 -43 45 26 26 20 37 -9 19 -11 -7 -24 -9 -28 -5 -4 5 -2 11 5 13
16 6 15 18 -4 37 -14 15 -14 20 0 63 9 26 16 48 16 50 0 2 -26 3 -59 3 l-58 0
-13 -47 c-6 -27 -18 -65 -26 -86 -13 -35 -13 -40 12 -77 38 -57 28 -74 -39
-67 -63 8 -130 51 -132 85 -1 16 2 19 9 12 5 -5 14 -10 18 -10 13 0 9 28 -4
33 -7 3 -3 6 9 6 12 1 29 11 38 24 12 15 19 18 22 10 8 -21 22 -15 38 18 l16
30 -67 -4 -68 -5 -17 -51 c-10 -28 -17 -72 -16 -97 l2 -46 92 -48 c85 -45 94
-48 127 -38 30 9 36 16 36 39 0 15 -6 30 -12 32 -8 3 -6 6 5 6 10 1 17 -6 18
-16 0 -10 2 -28 5 -41 2 -14 0 -21 -6 -17 -6 4 -10 -11 -10 -37 0 -71 -7 -83
-56 -97 -42 -13 -45 -12 -64 10 -11 13 -19 33 -19 44 2 39 -1 44 -36 51 -20 3
-35 12 -35 20 0 17 -1 17 -36 4 -21 -8 -29 -8 -36 2 -4 7 -8 86 -8 175 0 145
2 162 18 166 9 3 -12 5 -48 5 -36 0 -59 -2 -52 -5 6 -2 12 -15 12 -28 0 -13 5
-27 10 -30 6 -3 10 -23 10 -43 0 -36 0 -36 -16 -14 -18 26 -59 29 -68 6 -4 -9
-5 -18 -4 -19 2 -1 24 -14 51 -29 l47 -27 0 -84 c0 -94 2 -92 -68 -53 -44 24
-104 10 -129 -30 -9 -15 -26 -37 -38 -49 l-22 -21 -7 51 c-3 29 -9 122 -13
208 -6 149 -5 157 13 162 10 3 -75 4 -191 2 -116 -2 -268 -5 -340 -6 -71 -1
-119 -3 -105 -6 73 -11 73 -10 41 -41 -15 -15 -34 -44 -40 -64 -7 -21 -16 -40
-21 -43 -10 -6 -25 119 -15 134 7 13 -3 13 -135 11 -108 -1 -160 -8 -160 -21
0 -5 12 -6 27 -3 22 6 25 4 20 -10 -5 -13 1 -16 33 -16 31 0 40 -4 40 -17 0
-12 3 -14 8 -6 5 7 13 9 21 4 20 -13 -52 -45 -83 -37 -36 9 -41 -9 -10 -33 34
-26 36 -26 82 4 20 13 53 30 72 36 19 7 38 17 42 23 4 6 8 -27 7 -74 l0 -85
-45 -33 c-25 -19 -66 -41 -92 -49 -26 -9 -50 -20 -53 -25 -12 -18 -2 -51 22
-69 l24 -19 -37 0 c-42 0 -72 25 -82 68 -4 15 -9 83 -13 151 l-6 123 24 -12
c22 -12 23 -12 10 3 -7 10 -20 17 -27 17 -9 0 -14 12 -14 35 0 27 -4 35 -18
35 -16 0 -17 -9 -9 -117 4 -65 5 -137 2 -160 -6 -40 -9 -43 -36 -43 -16 0 -29
-4 -29 -9 0 -19 36 -71 53 -77 11 -3 17 -16 17 -35 l0 -29 -40 21 c-81 42
-161 171 -179 288 -6 35 -13 66 -17 70 -12 11 5 -990 20 -1179 17 -214 13
-190 27 -190 7 0 9 48 6 158 -5 150 -5 152 3 42 13 -157 19 -200 32 -200 7 0
9 46 5 143 l-5 142 9 -120 c15 -178 8 -165 84 -165 35 0 66 4 69 9 3 5 -1 96
-9 202 -23 308 -23 294 0 291 19 -2 20 2 17 165 -2 121 -7 176 -18 197 -16 34
-18 50 -4 41 6 -4 11 14 12 47 2 78 14 -109 23 -355 5 -115 11 -204 14 -199 3
6 6 -75 7 -179 1 -129 5 -193 13 -203 9 -11 42 -14 144 -15 73 -1 137 2 142 6
7 5 8 73 4 203 -4 107 -10 295 -14 418 -6 175 -5 222 5 222 9 0 10 -19 5 -81
-5 -59 -4 -80 4 -75 8 5 12 -18 13 -76 3 -134 5 -202 13 -410 l7 -198 150 0
150 0 -6 108 c-3 59 -8 175 -12 257 -3 83 -8 153 -11 158 -2 4 -13 -3 -24 -15
-12 -13 -18 -18 -15 -11 4 7 -6 14 -24 18 -33 7 -70 -1 -70 -16 0 -5 -5 -9
-11 -9 -5 0 -7 5 -3 11 3 6 -4 4 -18 -5 -22 -14 -24 -14 -36 4 -10 17 -9 18 6
13 15 -6 15 -5 2 11 -13 16 -12 20 5 32 11 8 25 12 32 10 7 -3 13 -2 13 3 0 5
18 13 39 18 34 9 41 8 56 -10 13 -15 19 -17 25 -7 4 7 13 9 20 5 9 -6 11 12 6
76 -3 46 -8 163 -10 259 -4 160 -3 165 5 65 5 -60 11 -139 13 -175 2 -36 8
-128 14 -205 6 -77 14 -242 18 -367 l7 -228 150 0 150 0 -6 153 c-15 340 -18
682 -8 712 8 23 10 7 6 -72 -3 -73 -1 -103 8 -107 9 -3 9 -5 0 -5 -8 -1 -13
-13 -12 -28 l1 -28 7 25 c4 14 11 -83 15 -215 4 -132 9 -283 12 -335 l4 -95
137 0 138 0 0 120 c0 66 -3 280 -7 475 -7 405 4 367 22 -70 7 -162 15 -347 18
-410 l7 -115 60 -3 c33 -2 98 -1 143 3 l84 7 -6 76 c-11 152 -16 938 -6 914 5
-13 10 -78 10 -145 -1 -67 3 -194 9 -282 5 -88 9 -251 10 -362 l1 -203 145 0
145 0 0 203 c0 111 2 240 4 287 3 58 2 72 -3 45 -10 -52 -11 306 -1 395 6 54
7 40 9 -85 3 -133 15 -339 19 -308 2 15 89 63 113 63 11 0 19 4 19 8 0 5 14 9
30 9 17 0 30 -4 30 -9 0 -14 48 -9 63 7 12 11 17 12 20 2 3 -6 6 74 7 178 1
105 5 231 9 280 7 82 8 75 9 -80 1 -93 4 -213 6 -265 3 -77 2 -83 -3 -30 -6
52 -8 38 -8 -70 0 -98 2 -119 7 -75 3 33 10 68 14 77 8 18 59 34 76 23 14 -9
13 -25 -2 -25 -7 0 -24 -16 -38 -34 -17 -23 -28 -30 -33 -23 -5 7 -7 -118 -5
-276 l3 -288 105 2 c58 1 122 4 143 7 l37 4 0 436 c0 239 2 433 5 430 3 -3 7
-172 8 -374 l1 -369 6 330 5 330 3 -393 2 -393 148 3 147 3 1 25 c7 114 11
927 5 900 -8 -33 -8 -32 -10 20 l-2 55 -30 -35 c-16 -19 -32 -44 -35 -55 -4
-15 -12 -20 -32 -19 -15 1 -40 3 -57 4 l-30 1 38 20 c37 20 38 21 23 44 -20
31 -20 35 2 35 28 0 96 27 100 39 3 9 7 9 18 0 16 -13 20 -5 27 46 2 17 6
-114 8 -290 1 -176 5 -285 6 -242 2 42 8 77 13 77 17 0 38 -44 46 -95 7 -50
72 -279 99 -346 11 -30 12 -40 1 -54 -11 -15 -22 -17 -69 -11 -58 8 -79 19
-52 30 14 5 14 9 -1 38 -9 18 -20 44 -25 58 -5 19 -8 12 -9 -30 0 -30 -3 -89
-6 -132 -3 -44 -1 -79 4 -82 6 -3 71 -3 146 1 l136 6 0 468 c0 301 -4 470 -10
474 -16 10 -12 22 10 28 24 6 36 -9 21 -27 -6 -7 -8 -21 -4 -31 9 -24 10 -55
12 -302 1 -196 2 -213 19 -213 15 0 15 -2 2 -11 -11 -8 -12 -12 -2 -16 7 -2
19 -11 27 -19 7 -8 16 -10 19 -5 3 5 -1 11 -9 15 -20 7 -19 30 2 47 15 12 16
12 11 -2 -5 -12 0 -16 18 -16 13 0 24 3 24 8 0 11 30 39 42 39 7 0 1 -11 -11
-24 l-22 -23 43 -11 c27 -7 44 -8 46 -2 5 12 49 13 56 1 3 -5 -8 -11 -25 -15
-27 -5 -30 -8 -19 -21 7 -8 23 -15 36 -15 22 0 24 -4 24 -56 0 -47 -3 -57 -20
-61 -11 -3 -17 -10 -14 -15 3 -5 12 -7 20 -4 11 4 14 -7 14 -53 0 -41 -4 -60
-14 -64 -22 -9 -28 5 -8 19 15 12 15 13 -9 14 -29 0 -48 -28 -28 -40 8 -6 7
-9 -2 -13 -10 -4 -10 -6 -1 -6 17 -1 15 -31 -2 -31 -17 0 -49 47 -41 60 3 6
-1 7 -10 4 -8 -4 -22 -1 -30 6 -8 7 -15 9 -15 5 0 -4 8 -14 17 -21 10 -7 14
-16 10 -20 -4 -5 -16 -3 -25 4 -9 6 -34 19 -54 28 -55 23 -50 43 10 37 45 -5
46 -4 27 11 -11 9 -15 16 -10 15 23 -3 25 3 10 31 -17 33 -13 50 13 51 14 0
13 2 -3 8 -11 4 -41 6 -67 3 l-48 -4 0 -119 0 -119 48 0 c26 0 91 3 145 7 l97
6 2 211 2 211 6 -200 c5 -160 6 -131 5 148 0 191 3 347 8 347 4 0 7 -58 7
-129 0 -127 6 -191 19 -191 4 0 8 21 9 47 1 26 6 49 11 53 5 3 12 18 15 34 7
37 16 46 17 15 0 -15 3 -19 6 -9 4 8 12 21 20 29 8 7 12 19 9 26 -3 8 5 15 20
18 14 2 24 -1 24 -7 1 -6 12 -24 25 -41 l25 -30 0 68 c0 62 -2 68 -25 79 -14
6 -25 15 -25 20 0 5 13 2 29 -6 23 -12 33 -29 50 -83 11 -39 16 -69 11 -71 -6
-2 -10 -17 -10 -34 0 -22 -4 -29 -15 -25 -25 10 -26 -10 -4 -50 20 -35 20 -37
2 -20 -26 23 -36 22 -23 -4 9 -17 8 -23 -7 -35 -10 -7 -21 -14 -25 -14 -12 0
-9 -28 3 -32 8 -3 7 -14 -5 -35 -9 -18 -16 -42 -16 -55 0 -27 -100 -138 -124
-138 -13 0 -16 -11 -16 -50 l0 -51 143 3 142 3 5 320 5 320 3 -311 c2 -253 5
-314 16 -323 9 -8 37 -10 82 -6 118 11 111 6 108 77 -4 94 22 297 52 404 15
52 29 92 32 90 6 -7 2 -505 -5 -533 -3 -14 -1 -23 6 -23 7 0 12 26 13 68 l2
67 3 -60 c2 -33 9 -64 15 -70 8 -7 9 -6 3 3 -4 7 -3 232 1 500 7 358 10 445
14 327 l5 -160 27 45 c15 25 34 64 42 85 38 107 55 130 82 113 13 -9 39 36 30
51 -9 13 16 15 30 2 5 -5 20 -11 34 -13 14 -2 28 -12 31 -23 4 -11 5 -110 3
-220 -2 -110 -6 -313 -9 -450 -4 -232 -3 -251 13 -252 18 -1 22 63 21 435 0
177 20 472 32 487 5 5 27 8 48 6 45 -3 81 12 81 34 0 8 7 15 15 15 9 0 18 7
22 16 3 8 12 13 19 10 14 -6 31 72 20 99 -3 8 -2 15 3 15 6 0 7 44 2 83 -2 13
-42 8 -57 -8 -21 -20 -31 -19 -44 5 -8 15 -21 20 -55 20 -25 0 -45 -5 -48 -12
-3 -7 -6 47 -6 120 -1 125 -2 132 -21 132 -19 0 -20 -7 -21 -95 -1 -52 -3 -99
-4 -105 -1 -5 -3 -16 -4 -24 -1 -11 -11 -10 -58 3 -86 24 -98 33 -98 78 0 33
-3 38 -21 36 -12 -1 -29 6 -39 17 -17 19 -43 17 -57 -4 -4 -6 -8 10 -8 36 0
45 -1 47 -32 53 -26 4 -415 3 -421 -1z m413 -45 c0 -39 -2 -41 -25 -37 -14 3
-28 2 -31 -3 -2 -4 -12 -5 -21 -2 -9 4 -21 -1 -28 -11 -15 -20 -19 -15 -34 39
-13 49 -6 55 77 55 l62 0 0 -41z m-387 3 c-10 -10 -20 -17 -22 -16 -6 5 20 34
30 34 5 0 1 -8 -8 -18z m-1659 -18 c16 -40 6 -64 -31 -79 -37 -16 -38 -16 -59
10 -17 22 -24 24 -46 16 -14 -5 -29 -7 -32 -4 -8 8 -8 58 1 66 3 4 41 7 84 7
61 0 78 -3 83 -16z m-1184 -19 c0 -9 -6 -12 -16 -8 -13 5 -13 7 -2 14 17 11
18 11 18 -6z m2157 -42 c4 -12 -32 -28 -57 -25 -41 6 -60 13 -60 21 0 5 14 4
31 -2 26 -10 32 -9 41 6 10 19 39 20 45 0z m189 9 c8 -5 8 -15 2 -32 -9 -24
-10 -24 -23 -6 -14 19 -15 19 -21 0 -3 -10 -13 -32 -21 -49 -14 -30 -14 -30
-8 15 5 28 15 51 28 62 25 20 28 21 43 10z m-2629 -84 c-2 -13 -4 -5 -4 17 -1
22 1 32 4 23 2 -10 2 -28 0 -40z m1348 -10 c0 -15 11 -37 24 -49 16 -15 20
-24 12 -32 -6 -6 -11 -21 -11 -34 0 -13 -5 -23 -11 -23 -8 0 -8 -4 0 -14 10
-11 7 -22 -11 -50 -32 -50 -48 -46 -50 12 0 26 -2 87 -4 135 l-2 88 26 -3 c20
-2 26 -9 27 -30z m242 -165 c-2 -37 -3 -9 -3 62 0 72 1 102 3 68 2 -34 2 -93
0 -130z m1643 166 c0 -9 -9 -19 -20 -22 -15 -4 -20 -14 -20 -38 0 -37 15 -30
23 11 3 14 4 -3 2 -38 -3 -65 -15 -100 -15 -43 0 19 -4 30 -10 26 -5 -3 -10
-15 -10 -25 0 -12 -17 -29 -45 -46 -25 -14 -45 -29 -45 -33 0 -5 9 -16 20 -26
24 -21 26 -37 5 -29 -8 4 -15 13 -15 21 0 8 -9 17 -21 20 -13 4 -17 8 -9 13
13 8 3 60 -11 60 -6 0 -5 -9 1 -20 9 -16 8 -20 -5 -20 -8 0 -15 -8 -15 -17 -1
-10 -17 -28 -37 -41 -29 -19 -38 -20 -51 -10 -13 11 -14 9 -8 -17 7 -30 7 -30
-9 -7 -24 33 -15 73 21 97 17 11 41 37 54 57 29 46 99 115 81 81 -8 -16 -8
-23 -1 -23 22 0 69 31 89 58 22 32 51 38 51 11z m-321 -76 c-2 -108 -10 -203
-19 -203 -8 0 -5 161 5 228 9 62 16 51 14 -25z m-1302 25 c-3 -7 -5 -2 -5 12
0 14 2 19 5 13 2 -7 2 -19 0 -25z m716 20 c-15 -26 -13 -55 7 -73 18 -17 20
-17 20 -1 0 30 30 78 46 72 8 -3 14 0 14 6 0 9 3 9 12 0 7 -7 20 -12 30 -12
10 0 18 -4 18 -10 0 -5 -5 -10 -11 -10 -6 0 -9 -7 -5 -15 3 -8 2 -14 -2 -13
-13 4 -92 -32 -92 -41 0 -6 19 -21 43 -35 46 -28 40 -35 -8 -8 -89 51 -105 66
-105 104 0 33 8 45 33 47 5 1 5 -5 0 -11z m1204 -55 c-2 -16 -4 -5 -4 22 0 28
2 40 4 28 2 -13 2 -35 0 -50z m219 46 c14 -15 15 -22 6 -28 -7 -4 -10 -15 -7
-23 4 -10 -1 -17 -14 -21 -24 -6 -28 2 -23 54 5 44 11 48 38 18z m-2291 -9 c3
-5 1 -10 -4 -10 -6 0 -11 5 -11 10 0 6 2 10 4 10 3 0 8 -4 11 -10z m1106 -34
c-9 -11 -9 -15 1 -18 10 -4 9 -9 -4 -21 -14 -14 -48 -14 -48 0 0 12 55 72 58
63 2 -6 -1 -17 -7 -24z m1266 -28 c-2 -13 -4 -5 -4 17 -1 22 1 32 4 23 2 -10
2 -28 0 -40z m-1570 -5 c-3 -10 -5 -4 -5 12 0 17 2 24 5 18 2 -7 2 -21 0 -30z
m1813 21 c0 -14 -3 -15 -17 -3 -10 7 -20 15 -22 16 -2 2 5 3 17 3 14 0 22 -6
22 -16z m-2463 -26 c-3 -7 -5 -2 -5 12 0 14 2 19 5 13 2 -7 2 -19 0 -25z
m2280 -5 c-3 -10 -5 -4 -5 12 0 17 2 24 5 18 2 -7 2 -21 0 -30z m-1676 3 c-9
-11 -9 -14 1 -13 35 1 48 -4 47 -20 0 -11 -3 -13 -6 -5 -9 22 -42 13 -60 -18
-9 -16 -21 -30 -25 -30 -11 0 -10 2 8 46 18 44 34 67 42 59 3 -2 0 -11 -7 -19z
m429 2 c0 -6 -6 -5 -15 2 -8 7 -15 14 -15 16 0 2 7 1 15 -2 8 -4 15 -11 15
-16z m-1627 -5 c-7 -2 -19 -2 -25 0 -7 3 -2 5 12 5 14 0 19 -2 13 -5z m894
-50 c-3 -10 -5 -4 -5 12 0 17 2 24 5 18 2 -7 2 -21 0 -30z m28 -210 c-2 -7 -9
-13 -16 -13 -6 0 -9 6 -6 13 14 37 18 59 11 54 -5 -3 -7 34 -5 81 l5 87 8
-105 c4 -58 6 -111 3 -117z m532 195 c-3 -8 -6 -5 -6 6 -1 11 2 17 5 13 3 -3
4 -12 1 -19z m119 -17 c-4 -5 7 -12 23 -16 39 -8 58 -31 45 -53 -14 -21 -36
-28 -28 -9 6 17 -23 37 -54 37 -11 0 -25 7 -33 16 -10 13 -10 17 2 25 18 11
52 12 45 0z m-1959 -33 c-3 -8 -6 -5 -6 6 -1 11 2 17 5 13 3 -3 4 -12 1 -19z
m717 -32 c-7 -17 -34 -23 -34 -6 0 9 32 31 38 26 1 -2 0 -11 -4 -20z m-1674
-155 c-3 -29 -9 -51 -14 -50 -4 1 -27 -14 -50 -33 -61 -51 -74 -53 -72 -15 1
25 6 32 23 33 12 1 36 13 53 28 17 14 36 26 41 26 5 0 10 35 10 78 2 68 2 71
8 30 4 -25 4 -69 1 -97z m3256 -31 c14 0 22 4 19 10 -3 6 -1 10 4 10 6 0 11
-11 11 -25 0 -20 5 -25 23 -25 34 0 38 -9 20 -44 -10 -19 -18 -26 -21 -18 -2
8 1 19 7 25 15 15 14 27 -4 27 -17 0 -37 -43 -29 -63 2 -7 19 -14 37 -15 38
-3 63 -22 28 -22 -14 0 -25 -7 -28 -19 -7 -26 -33 -36 -34 -13 0 9 -9 -1 -19
-23 -22 -48 -26 -34 -5 24 14 39 13 43 -10 78 -14 19 -25 44 -25 54 0 11 -4
19 -9 19 -11 0 -14 131 -4 168 6 19 9 1 11 -60 3 -87 3 -88 28 -88z m148 164
c22 -9 20 -21 -5 -27 -16 -4 -19 -11 -14 -26 7 -22 -3 -22 -52 2 -28 13 -30
31 -3 24 13 -3 24 1 30 14 11 20 19 23 44 13z m146 -489 l-7 -470 0 460 c-1
403 2 495 12 483 1 -2 -1 -214 -5 -473z m-1839 408 c-9 -16 -10 -16 -11 4 0
12 3 30 7 40 7 16 8 16 11 -4 2 -12 -1 -30 -7 -40z m-1064 15 c-3 -7 -5 -2 -5
12 0 14 2 19 5 13 2 -7 2 -19 0 -25z m1163 16 c0 -2 -7 -4 -15 -4 -8 0 -15 4
-15 10 0 5 7 7 15 4 8 -4 15 -8 15 -10z m-2080 -15 c0 -5 -4 -9 -10 -9 -5 0
-10 7 -10 16 0 8 5 12 10 9 6 -3 10 -10 10 -16z m-253 -26 c-3 -10 -5 -4 -5
12 0 17 2 24 5 18 2 -7 2 -21 0 -30z m804 17 c37 -20 19 -30 -56 -30 -58 0
-87 -6 -131 -25 -68 -30 -66 -30 -62 -3 4 29 47 50 123 58 92 11 105 11 126 0z
m133 -2 c-7 -11 -42 -10 -49 2 -4 6 5 10 24 8 16 -1 27 -6 25 -10z m2591 -74
c-6 -27 3 -36 26 -23 15 7 19 6 19 -5 0 -12 -46 -46 -63 -46 -3 0 -1 124 3
145 1 6 6 -3 11 -20 5 -16 7 -39 4 -51z m325 61 c11 -13 8 -15 -13 -15 -26 0
-42 12 -30 24 11 11 30 7 43 -9z m-3720 -29 c0 -8 -4 -17 -9 -21 -12 -7 -24
12 -16 25 9 15 25 12 25 -4z m3471 -8 c11 -21 11 -22 -4 -9 -10 7 -17 17 -17
22 0 15 9 10 21 -13z m-3336 -43 c0 -11 -8 -21 -17 -23 -14 -3 -18 3 -18 23 0
20 4 26 18 23 9 -2 17 -12 17 -23z m3685 -12 c0 -26 -3 -34 -11 -26 -9 9 -3
63 7 63 2 0 4 -17 4 -37z m-620 12 c0 -8 -2 -15 -4 -15 -2 0 -6 7 -10 15 -3 8
-1 15 4 15 6 0 10 -7 10 -15z m30 -25 c0 -5 -5 -10 -11 -10 -5 0 -7 5 -4 10 3
6 8 10 11 10 2 0 4 -4 4 -10z m-370 -26 c0 -8 -4 -14 -9 -14 -12 0 -32 26 -25
33 10 9 34 -4 34 -19z m897 4 c-3 -8 -6 -5 -6 6 -1 11 2 17 5 13 3 -3 4 -12 1
-19z m480 -20 c-3 -8 -6 -5 -6 6 -1 11 2 17 5 13 3 -3 4 -12 1 -19z m-4027 2
c0 -5 -5 -10 -11 -10 -5 0 -7 5 -4 10 3 6 8 10 11 10 2 0 4 -4 4 -10z m3540
-20 c0 -11 -7 -20 -15 -20 -13 0 -13 3 -3 20 7 11 14 20 15 20 2 0 3 -9 3 -20z
m-3913 -77 c-2 -16 -4 -3 -4 27 0 30 2 43 4 28 2 -16 2 -40 0 -55z m4400 55
c-3 -8 -6 -5 -6 6 -1 11 2 17 5 13 3 -3 4 -12 1 -19z m-320 -25 c-3 -10 -5 -4
-5 12 0 17 2 24 5 18 2 -7 2 -21 0 -30z m-2937 -21 c0 -5 -6 -17 -14 -28 -19
-25 -31 -12 -14 15 13 21 28 28 28 13z m1906 -18 c-4 -9 -9 -15 -11 -12 -3 3
-3 13 1 22 4 9 9 15 11 12 3 -3 3 -13 -1 -22z m53 -96 c-1 -67 -3 -76 -9 -48
-8 31 -14 101 -11 123 1 4 6 7 11 7 6 0 10 -33 9 -82z m321 63 c0 -5 -26 -13
-57 -16 -32 -4 -67 -9 -78 -12 -11 -3 -17 -2 -13 2 6 6 84 25 141 34 4 0 7 -3
7 -8z m-3413 -133 c-2 -24 -4 -7 -4 37 0 44 2 63 4 43 2 -21 2 -57 0 -80z
m3508 102 c-28 -12 -47 -12 -40 0 3 6 18 10 33 9 24 0 25 -1 7 -9z m-965 -64
c0 -8 -7 -16 -15 -20 -17 -6 -18 -4 -9 18 8 20 24 21 24 2z m804 -61 c11 -8
15 -15 10 -15 -6 0 -19 7 -30 15 -10 8 -14 14 -9 14 6 0 19 -6 29 -14z m-2975
-17 c19 -12 46 -21 58 -20 13 2 23 -2 23 -8 0 -7 -8 -10 -20 -7 -11 3 -23 1
-26 -4 -16 -27 -98 18 -87 47 7 18 9 18 52 -8z m3378 0 c-3 -8 -6 -5 -6 6 -1
11 2 17 5 13 3 -3 4 -12 1 -19z m-1620 -25 c-3 -10 -5 -4 -5 12 0 17 2 24 5
18 2 -7 2 -21 0 -30z m-1386 -6 c-13 -13 -26 -3 -16 12 3 6 11 8 17 5 6 -4 6
-10 -1 -17z m2939 19 c0 -2 -7 -7 -16 -10 -8 -3 -12 -2 -9 4 6 10 25 14 25 6z
m-274 -33 c-8 -8 -36 5 -36 17 0 7 6 7 21 0 11 -7 18 -14 15 -17z m-3399 -90
c-2 -21 -4 -4 -4 37 0 41 2 58 4 38 2 -21 2 -55 0 -75z m3403 32 c0 -25 -4
-45 -10 -45 -5 0 -10 6 -10 14 0 8 -7 16 -15 20 -8 3 -15 11 -15 18 0 11 8 18
48 37 1 0 2 -19 2 -44z m-70 11 c0 -3 -4 -8 -10 -11 -5 -3 -10 -1 -10 4 0 6 5
11 10 11 6 0 10 -2 10 -4z m38 -56 c-4 -21 -47 -21 -58 1 -8 13 -6 20 7 27 21
12 55 -7 51 -28z m32 -75 c0 -8 -5 -15 -11 -15 -5 0 -7 5 -4 10 3 6 -1 10 -10
10 -9 0 -19 -9 -22 -20 -3 -11 -9 -17 -14 -14 -5 3 -5 13 1 24 7 14 6 20 -7
25 -15 5 -14 8 7 19 22 11 27 10 43 -5 9 -10 17 -25 17 -34z m-2795 -15 c3 -5
1 -10 -4 -10 -6 0 -11 5 -11 10 0 6 2 10 4 10 3 0 8 -4 11 -10z m2889 -36 c4
-10 1 -14 -6 -12 -15 5 -23 28 -10 28 5 0 13 -7 16 -16z m386 -29 c-6 -15 -13
-26 -16 -23 -2 3 0 18 6 33 6 15 13 26 16 23 2 -3 0 -18 -6 -33z m-3623 -12
c-3 -10 -5 -4 -5 12 0 17 2 24 5 18 2 -7 2 -21 0 -30z m3143 -3 c0 -5 -7 -10
-15 -10 -8 0 -15 5 -15 10 0 6 7 10 15 10 8 0 15 -4 15 -10z m-3061 -108 c-5
-2 -7 -8 -4 -13 4 -5 -2 -6 -11 -2 -10 4 -15 2 -11 -4 8 -13 -26 -13 -35 1 -4
6 -8 34 -8 61 l1 50 39 -45 c21 -25 34 -47 29 -48z"/>
<path d="M2295 2950 c-3 -5 -1 -10 4 -10 6 0 11 5 11 10 0 6 -2 10 -4 10 -3 0
-8 -4 -11 -10z"/>
<path d="M3900 2655 c-11 -13 -10 -14 4 -9 9 3 16 10 16 15 0 13 -6 11 -20 -6z"/>
<path d="M4493 3063 c15 -2 37 -2 50 0 12 2 0 4 -28 4 -27 0 -38 -2 -22 -4z"/>
<path d="M5066 2908 c-5 -126 -10 -166 -21 -174 -18 -13 -20 -34 -4 -34 9 0
11 -142 8 -542 -3 -407 -1 -542 8 -545 8 -3 12 68 13 277 0 154 5 292 10 306
6 14 10 93 10 175 0 83 4 148 8 145 5 -3 14 -37 21 -75 7 -39 31 -117 53 -173
43 -111 83 -225 94 -273 9 -37 11 -28 19 117 5 73 11 107 18 105 9 -1 12 32
13 113 1 63 3 142 4 175 l2 60 9 -55 c11 -63 3 -349 -13 -520 -6 -63 -12 -142
-13 -175 -7 -150 -17 -206 -38 -214 -34 -13 6 -41 59 -41 63 0 55 20 -8 21
-42 1 -47 3 -23 8 24 5 31 12 33 35 2 18 0 26 -7 21 -7 -4 -11 4 -11 20 0 14
4 24 9 21 9 -6 17 116 27 404 3 102 8 196 10 210 2 14 6 192 8 395 2 204 2
352 0 330 -2 -22 -7 -69 -10 -105 -9 -86 -22 -55 -25 60 l-3 85 -6 -70 c-4
-38 -7 -57 -8 -41 -4 70 -14 5 -21 -136 -6 -130 -11 -161 -30 -203 -21 -43
-23 -60 -18 -130 3 -44 2 -102 -3 -130 -6 -40 -8 -25 -9 73 -1 91 -4 121 -13
116 -8 -5 -9 -2 -4 12 5 10 10 28 11 40 2 11 7 29 13 40 25 48 43 142 40 214
-3 71 -4 75 -26 74 -18 -1 -22 4 -19 17 7 26 -17 43 -41 30 -13 -7 -22 -7 -30
1 -5 5 -15 8 -20 4 -14 -9 -21 -68 -10 -89 6 -12 5 -23 -3 -33 -26 -31 -31
-13 -28 98 4 97 2 113 -12 116 -14 2 -17 -18 -23 -160z m115 -427 c-38 -38
-44 -20 -9 25 18 22 24 25 26 12 2 -9 -6 -26 -17 -37z m96 -68 c-2 -16 -4 -3
-4 27 0 30 2 43 4 28 2 -16 2 -40 0 -55z m20 -175 c-3 -7 -5 -2 -5 12 0 14 2
19 5 13 2 -7 2 -19 0 -25z"/>
<path d="M1743 3013 c9 -2 23 -2 30 0 6 3 -1 5 -18 5 -16 0 -22 -2 -12 -5z"/>
<path d="M4570 3001 c0 -6 5 -13 10 -16 6 -3 10 1 10 9 0 9 -4 16 -10 16 -5 0
-10 -4 -10 -9z"/>
<path d="M5 2960 c-3 -5 -1 -10 4 -10 6 0 11 -10 11 -22 0 -16 3 -19 11 -11 6
6 8 20 4 32 -7 22 -20 27 -30 11z"/>
<path d="M1965 2899 c-9 -14 -2 -20 14 -10 8 6 9 11 3 15 -6 3 -14 1 -17 -5z"/>
<path d="M5027 2670 c-13 -35 -17 -70 -7 -70 12 0 23 42 17 67 -3 15 -5 15
-10 3z"/>
<path d="M4990 2585 c0 -9 6 -12 15 -9 8 4 15 7 15 9 0 2 -7 5 -15 9 -9 3 -15
0 -15 -9z"/>
<path d="M4930 2555 c0 -8 5 -15 10 -15 6 0 10 7 10 15 0 8 -4 15 -10 15 -5 0
-10 -7 -10 -15z"/>
<path d="M5299 2148 c-1 -29 -2 -70 -3 -91 -2 -21 0 -40 4 -42 3 -2 7 39 9 91
1 51 0 94 -3 94 -3 0 -6 -24 -7 -52z"/>
<path d="M2192 2150 c0 -14 2 -19 5 -12 2 6 2 18 0 25 -3 6 -5 1 -5 -13z"/>
<path d="M3960 2094 c-14 -43 -12 -47 20 -31 26 13 35 44 12 39 -8 -1 -11 2
-8 7 4 5 2 12 -3 15 -5 4 -15 -10 -21 -30z"/>
<path d="M2491 2095 c-1 -25 -10 -34 -49 -53 -26 -12 -52 -22 -58 -22 -6 0
-17 -7 -24 -15 -7 -8 -16 -13 -20 -10 -5 3 -11 1 -14 -4 -4 -5 -20 -5 -40 1
-31 10 -33 13 -25 34 10 27 -2 32 -21 9 -11 -13 -15 -13 -22 -3 -5 8 -6 -90
-2 -237 3 -137 7 -251 9 -253 1 -1 66 1 144 4 l141 7 -1 171 c-2 171 -14 428
-18 371z"/>
<path d="M5356 2079 c-9 -45 -6 -180 4 -204 5 -13 9 27 9 108 1 70 -1 127 -3
127 -2 0 -6 -14 -10 -31z"/>
<path d="M3471 2044 c0 -11 3 -14 6 -6 3 7 2 16 -1 19 -3 4 -6 -2 -5 -13z"/>
<path d="M3980 2030 c0 -5 5 -10 10 -10 6 0 10 5 10 10 0 6 -4 10 -10 10 -5 0
-10 -4 -10 -10z"/>
<path d="M3474 1810 c0 -91 2 -128 3 -82 2 45 2 119 0 165 -1 45 -3 8 -3 -83z"/>
<path d="M3840 1956 c0 -8 -6 -16 -12 -18 -7 -3 -3 -7 9 -10 32 -9 51 17 24
32 -17 8 -21 8 -21 -4z"/>
<path d="M5285 1950 c3 -5 8 -10 11 -10 2 0 4 5 4 10 0 6 -5 10 -11 10 -5 0
-7 -4 -4 -10z"/>
<path d="M263 1870 c0 -36 2 -50 4 -32 2 17 2 47 0 65 -2 17 -4 3 -4 -33z"/>
<path d="M3556 1902 c-10 -17 6 -72 21 -72 11 0 13 8 8 33 -8 37 -20 53 -29
39z"/>
<path d="M3851 1871 c-8 -5 -9 -11 -3 -15 5 -3 15 1 22 9 14 16 3 20 -19 6z"/>
<path d="M3725 1860 c-3 -5 1 -10 9 -10 9 0 16 5 16 10 0 6 -4 10 -9 10 -6 0
-13 -4 -16 -10z"/>
<path d="M3725 1820 c-3 -5 -2 -10 4 -10 5 0 13 5 16 10 3 6 2 10 -4 10 -5 0
-13 -4 -16 -10z"/>
<path d="M3644 1794 c-18 -14 -18 -15 4 -9 13 4 22 2 22 -4 0 -6 -5 -11 -12
-11 -8 0 -8 -4 2 -14 19 -18 70 -30 70 -16 0 5 -12 10 -26 10 -17 0 -24 4 -21
13 3 7 -1 20 -8 30 -11 15 -14 15 -31 1z"/>
<path d="M5350 1743 c0 -41 3 -54 10 -43 13 20 13 100 0 100 -6 0 -10 -26 -10
-57z"/>
<path d="M2202 1750 c0 -14 2 -19 5 -12 2 6 2 18 0 25 -3 6 -5 1 -5 -13z"/>
<path d="M2203 1675 c0 -22 2 -30 4 -17 2 12 2 30 0 40 -3 9 -5 -1 -4 -23z"/>
<path d="M2522 1630 c0 -14 2 -19 5 -12 2 6 2 18 0 25 -3 6 -5 1 -5 -13z"/>
<path d="M2201 1614 c0 -11 3 -14 6 -6 3 7 2 16 -1 19 -3 4 -6 -2 -5 -13z"/>
<path d="M4816 1572 c-85 -1 -155 -7 -161 -13 -12 -12 407 -1 440 11 12 5 -12
7 -54 7 -41 -1 -142 -3 -225 -5z"/>
<path d="M5133 1573 c9 -2 23 -2 30 0 6 3 -1 5 -18 5 -16 0 -22 -2 -12 -5z"/>
<path d="M4331 1559 c-231 -6 -546 -14 -966 -24 -115 -3 -338 -7 -495 -10
-157 -3 -379 -7 -495 -10 -292 -7 -736 -13 -1520 -21 -369 -4 -679 -11 -690
-16 -12 -5 106 -6 280 -3 165 3 588 7 940 10 645 6 1320 17 1975 35 195 5 501
12 680 16 179 3 348 8 375 9 28 2 85 4 128 4 46 1 76 5 72 10 -3 6 -15 9 -27
8 -11 -1 -127 -5 -257 -8z"/>
<path d="M4715 1517 c-2 -7 -5 -147 -8 -312 -2 -165 -1 -273 3 -240 l7 60 1
-52 c1 -28 7 -55 12 -58 6 -4 10 37 10 117 1 157 10 459 15 475 2 6 -5 13 -16
16 -11 3 -22 0 -24 -6z"/>
<path d="M5027 1378 c-11 -237 -9 -403 5 -435 11 -24 13 -6 19 132 12 301 10
455 -4 455 -11 0 -15 -35 -20 -152z m10 -250 c-2 -24 -4 -7 -4 37 0 44 2 63 4
43 2 -21 2 -57 0 -80z"/>
<path d="M5287 1312 c-6 -210 -12 -266 -27 -243 -3 6 -7 -23 -8 -65 -1 -60 -5
-79 -19 -90 -12 -9 -13 -13 -5 -14 7 0 10 -4 7 -10 -3 -5 4 -11 17 -12 75 -5
108 -4 108 4 0 4 -26 8 -57 9 l-58 0 38 16 c37 15 38 17 32 56 -6 34 -5 39 8
34 12 -4 14 -2 10 11 -4 10 2 7 15 -8 l21 -25 1 78 c0 62 -3 77 -15 77 -9 0
-15 9 -15 25 0 18 4 23 15 19 13 -5 15 6 15 70 0 60 -3 76 -15 76 -19 0 -24
-25 -28 -135 -2 -49 -3 8 -3 128 1 192 -1 217 -15 217 -14 0 -17 -28 -22 -218z
m4 -372 c-10 -25 -10 -24 -10 6 -1 17 2 53 7 80 l7 49 3 -55 c2 -31 -2 -67 -7
-80z"/>
<path d="M4138 1513 c-16 -4 -18 -27 -21 -261 l-2 -257 -3 258 -2 257 -150 0
-150 0 -2 -87 -2 -88 -6 85 c-4 47 -6 -52 -5 -220 l1 -305 142 -3 c78 -1 143
-1 144 0 0 2 4 120 8 263 l6 260 2 -247 c1 -135 5 -253 8 -262 7 -17 56 -21
138 -10 l46 7 0 106 c0 105 21 222 40 229 6 2 10 24 10 48 0 38 -4 46 -25 54
-24 9 -25 14 -25 83 0 43 5 78 12 85 9 9 -6 12 -67 11 -44 -1 -88 -3 -97 -6z
m-331 -265 c-2 -13 -4 -5 -4 17 -1 22 1 32 4 23 2 -10 2 -28 0 -40z"/>
<path d="M4390 1377 c0 -79 -3 -220 -6 -313 -4 -98 -3 -166 2 -161 5 5 12 106
15 225 l5 217 2 -217 c1 -120 5 -218 10 -218 4 0 7 57 7 128 0 70 2 206 4 302
3 171 2 175 -18 178 -20 3 -21 0 -21 -141z"/>
<path d="M3613 1503 l-123 -4 -1 -212 c-1 -126 -4 -202 -9 -187 -6 16 -8 -16
-8 -88 1 -62 5 -115 10 -118 4 -3 8 9 8 25 0 17 5 31 10 31 6 0 10 -7 10 -15
0 -9 9 -15 25 -15 14 0 24 -3 24 -7 -5 -33 1 -35 100 -31 55 1 102 5 105 8 3
3 8 140 12 304 6 251 5 299 -7 307 -8 5 -18 8 -24 7 -5 -1 -65 -4 -132 -5z"/>
<path d="M3057 1493 l-198 -3 -9 -26 c-6 -14 -9 -100 -8 -192 1 -114 3 -151 8
-117 5 32 7 -10 7 -115 l-1 -165 105 -3 c57 -2 123 0 147 3 l42 6 0 295 c0
162 4 294 8 294 4 0 6 -126 4 -281 -4 -277 0 -339 19 -291 5 12 20 27 35 32
21 8 29 7 41 -7 8 -10 12 -12 8 -5 -4 8 2 12 19 12 19 0 24 4 19 16 -5 14 -1
16 28 10 70 -12 79 -13 79 -5 0 5 7 9 15 9 10 0 15 -11 15 -35 0 -19 4 -35 9
-35 6 0 10 121 11 305 l1 305 -103 -2 c-57 -2 -192 -4 -301 -5z m-200 -135
c-3 -7 -5 -2 -5 12 0 14 2 19 5 13 2 -7 2 -19 0 -25z m0 -105 c-2 -16 -4 -5
-4 22 0 28 2 40 4 28 2 -13 2 -35 0 -50z"/>
<path d="M2652 1481 l-113 -6 -2 -295 c0 -163 3 -301 7 -308 8 -13 76 -15 204
-5 l82 6 0 302 c0 324 1 319 -48 313 -9 -1 -68 -4 -130 -7z"/>
<path d="M0 1470 c0 -5 12 -10 26 -10 14 0 23 4 19 10 -3 6 -15 10 -26 10 -10
0 -19 -4 -19 -10z"/>
<path d="M2254 1473 l-31 -4 -6 -82 c-4 -45 -6 -122 -5 -172 l2 -90 6 85 c5
63 7 34 8 -115 0 -110 1 -208 1 -217 1 -16 15 -18 146 -18 l145 0 0 128 c0 71
-3 211 -7 310 l-6 182 -111 -2 c-61 0 -125 -3 -142 -5z"/>
<path d="M3471 1464 c0 -11 3 -14 6 -6 3 7 2 16 -1 19 -3 4 -6 -2 -5 -13z"/>
<path d="M1649 1463 l-56 -4 4 -292 c4 -287 11 -371 23 -272 3 28 2 58 -2 67
-4 9 -8 46 -8 83 0 81 20 125 55 125 20 0 25 5 25 25 0 30 7 31 40 5 32 -25
50 -25 43 0 -3 11 -3 20 0 20 14 0 61 -56 60 -70 -2 -10 0 -11 3 -2 6 13 33
17 35 5 1 -5 5 -66 8 -138 l8 -130 1 156 c1 86 -1 217 -5 292 l-6 137 -86 -2
c-47 -1 -111 -3 -142 -5z"/>
<path d="M1910 1463 c0 -5 0 -134 0 -287 1 -301 12 -415 20 -206 l5 125 19
-38 c14 -28 17 -52 14 -97 -4 -55 3 -78 15 -47 4 9 6 9 6 -1 1 -7 -7 -24 -16
-38 l-16 -26 120 4 c67 1 123 5 125 8 2 3 2 141 0 308 l-3 302 -144 0 c-80 0
-145 -3 -145 -7z"/>
<path d="M496 1453 l-189 -3 7 -153 c9 -203 25 -427 33 -451 5 -18 14 -19 145
-13 77 3 143 8 145 11 3 3 2 54 -3 113 -4 59 -9 100 -11 91 -5 -22 -4 -22 -48
3 -27 16 -39 19 -49 10 -8 -7 -18 -11 -22 -9 -13 3 -54 -12 -54 -20 0 -4 -22
-8 -49 -8 l-50 -2 -6 62 c-3 33 -5 115 -3 181 l3 120 46 25 c40 21 51 22 73
12 15 -6 29 -20 32 -29 3 -10 11 -29 17 -41 10 -20 8 -26 -10 -40 -14 -12 -22
-32 -26 -65 -5 -56 9 -77 54 -77 16 0 29 -4 29 -10 0 -5 14 -10 31 -10 l32 0
-5 140 c-3 77 -2 137 3 135 4 -3 10 1 12 7 3 7 4 -34 2 -92 -2 -58 -1 -89 3
-70 4 19 7 -48 8 -150 0 -102 4 -206 8 -232 l7 -48 146 0 146 0 -7 223 c-3
122 -9 261 -13 310 l-6 87 -121 -2 c-67 -2 -206 -4 -310 -5z m217 -292 c4 -1
12 -12 17 -26 5 -14 16 -25 25 -25 26 0 17 -34 -12 -46 -60 -25 -71 -24 -77 8
-8 38 -8 83 0 90 3 3 13 5 22 3 9 -2 20 -4 25 -4z"/>
<path d="M960 1418 c0 -24 -2 -81 -4 -128 -4 -65 -3 -75 4 -45 6 27 8 -6 5
-105 -3 -100 -1 -140 6 -130 7 11 9 -12 7 -75 l-3 -90 148 -3 149 -3 -6 208
c-4 115 -9 254 -12 311 l-6 102 -144 0 -144 0 0 -42z"/>
<path d="M1284 1320 c5 -95 4 -140 -4 -140 -5 0 -10 -7 -10 -15 0 -8 4 -15 9
-15 5 0 9 -65 9 -144 0 -79 3 -150 7 -156 6 -9 33 -10 109 -5 55 4 107 8 114
8 8 0 7 6 -4 18 -9 10 -13 22 -10 28 3 5 0 12 -6 14 -9 4 -8 6 2 6 16 1 36 61
44 129 3 19 7 36 9 39 7 7 20 -183 15 -212 -3 -14 -1 -25 5 -25 7 0 8 61 4
182 -4 99 -7 237 -7 305 l0 123 -146 0 -147 0 7 -140z m211 -458 c-4 -4 -13 2
-21 12 -22 30 -17 43 7 17 12 -12 18 -25 14 -29z"/>
<path d="M45 1343 c3 -54 12 -188 20 -298 7 -110 11 -203 8 -207 -2 -5 5 -8
15 -8 18 0 19 6 15 93 -3 50 -12 133 -21 182 -10 55 -15 137 -14 213 1 105 -1
122 -14 122 -14 0 -15 -13 -9 -97z"/>
<path d="M85 1403 c4 -21 10 -97 14 -170 3 -76 11 -137 17 -143 11 -11 11 100
0 275 -3 46 -2 60 4 40 4 -16 8 -57 9 -90 1 -33 4 -77 7 -98 5 -30 9 -35 20
-26 8 6 14 16 14 21 0 17 58 84 95 109 32 22 35 28 35 72 l0 47 -39 0 c-22 0
-42 -5 -44 -12 -4 -10 -6 -10 -6 0 -1 8 -21 12 -67 12 l-67 0 8 -37z"/>
<path d="M3471 1294 c0 -11 3 -14 6 -6 3 7 2 16 -1 19 -3 4 -6 -2 -5 -13z"/>
<path d="M1273 1240 c0 -25 2 -35 4 -22 2 12 2 32 0 45 -2 12 -4 2 -4 -23z"/>
<path d="M1640 1130 c0 -5 5 -10 10 -10 6 0 10 5 10 10 0 6 -4 10 -10 10 -5 0
-10 -4 -10 -10z"/>
<path d="M2842 1060 c0 -14 2 -19 5 -12 2 6 2 18 0 25 -3 6 -5 1 -5 -13z"/>
<path d="M307 980 c-4 -16 -4 -36 -1 -43 3 -9 -8 -18 -33 -26 -21 -7 -44 -15
-50 -17 -9 -4 -13 4 -13 21 0 14 -4 24 -9 20 -15 -9 -41 -65 -30 -65 5 0 9 -5
9 -11 0 -6 -8 -9 -17 -7 -11 2 -18 13 -18 27 0 14 -6 26 -13 29 -8 2 -12 -9
-12 -35 l0 -39 100 -2 100 -3 0 91 c0 49 -2 90 -4 90 -2 0 -6 -13 -9 -30z"/>
<path d="M5347 943 c-12 -11 -8 -23 8 -23 8 0 15 7 15 15 0 16 -12 20 -23 8z"/>
<path d="M1530 910 c0 -5 5 -10 11 -10 5 0 7 5 4 10 -3 6 -8 10 -11 10 -2 0
-4 -4 -4 -10z"/>
<path d="M5159 896 c-2 -2 -112 -7 -244 -10 -132 -3 -276 -8 -320 -11 -77 -5
-238 -9 -810 -20 -148 -3 -335 -7 -415 -10 -80 -3 -381 -7 -670 -11 -289 -3
-530 -7 -537 -9 -6 -2 -319 -7 -695 -11 -376 -4 -701 -8 -723 -9 -22 -1 -156
-3 -297 -4 -187 -1 -258 -4 -258 -12 0 -9 55 -10 212 -5 117 3 465 8 773 11
1743 14 3965 67 4015 96 12 7 11 8 -6 9 -11 0 -23 -2 -25 -4z"/>
<path d="M5287 753 c-4 -54 -7 -178 -7 -275 0 -97 -4 -179 -8 -182 -8 -4 -7
306 1 482 2 41 -1 62 -8 62 -8 0 -16 -60 -24 -177 -6 -98 -16 -209 -21 -248
-5 -38 -10 -83 -12 -100 -2 -16 -7 -33 -12 -36 -16 -12 35 -31 97 -37 44 -4
58 -2 53 6 -4 7 -31 12 -59 12 l-52 0 29 15 c15 8 46 15 67 15 l39 0 0 48 c0
38 -5 53 -24 71 -14 13 -29 20 -35 16 -13 -7 -14 39 -5 173 6 83 8 90 25 82
33 -18 39 -11 39 51 0 64 -17 98 -38 77 -8 -8 -14 -4 -21 15 -6 15 -12 27 -14
27 -2 0 -7 -44 -10 -97z"/>
<path d="M4696 796 c-3 -22 -7 -149 -9 -281 -2 -132 -1 -215 3 -185 6 50 7 51
9 15 1 -22 5 -46 10 -54 11 -17 18 84 25 345 5 183 5 192 -14 197 -16 4 -20
-2 -24 -37z m11 -333 c-1 -43 -3 -10 -3 72 0 83 2 118 3 78 2 -40 2 -107 0
-150z"/>
<path d="M5006 718 c-10 -208 -14 -436 -7 -383 3 29 9 44 12 34 4 -8 5 -27 2
-41 -3 -14 0 -28 5 -32 13 -8 20 76 27 342 6 196 6 202 -13 202 -19 0 -20 -9
-26 -122z m21 65 c-3 -10 -5 -2 -5 17 0 19 2 27 5 18 2 -10 2 -26 0 -35z m-10
-295 c-2 -29 -3 -6 -3 52 0 58 1 81 3 53 2 -29 2 -77 0 -105z"/>
<path d="M5355 830 c3 -5 8 -10 11 -10 2 0 4 5 4 10 0 6 -5 10 -11 10 -5 0 -7
-4 -4 -10z"/>
<path d="M4377 678 c-7 -152 -7 -438 0 -363 2 22 8 141 13 265 l9 225 -4 -251
c-2 -138 0 -256 4 -263 10 -16 21 175 21 377 0 151 -1 162 -18 162 -17 0 -19
-13 -25 -152z"/>
<path d="M3792 812 c-9 -7 -12 -68 -10 -273 l3 -264 141 -3 141 -3 6 68 c4 38
7 159 7 271 0 111 3 202 8 202 4 0 7 -120 7 -267 l0 -268 76 -3 76 -3 2 168
c2 155 14 324 27 365 5 16 -13 17 -233 17 -131 1 -244 -3 -251 -7z"/>
<path d="M3374 793 c1 -14 -11 -19 -63 -25 -35 -4 -67 -11 -70 -16 -3 -5 -18
-12 -33 -16 -26 -6 -28 -4 -28 23 0 16 -5 33 -10 36 -10 6 -14 -482 -4 -517 5
-16 20 -18 143 -18 l138 0 6 167 c10 237 8 394 -4 365 -10 -26 -35 -25 -33 2
1 10 -6 16 -21 16 -15 0 -22 -6 -21 -17z m-134 -68 c0 -2 -13 -11 -30 -20 -26
-13 -30 -13 -30 -1 0 13 16 22 48 25 6 0 12 -1 12 -4z m-13 -40 c-9 -8 -21
-15 -27 -15 -6 0 -8 -5 -4 -12 4 -7 3 -8 -4 -4 -18 11 -14 20 15 38 32 19 42
16 20 -7z m147 3 c-6 -10 -5 -10 7 -1 12 10 18 9 32 -7 9 -11 12 -20 6 -20 -6
0 -9 -7 -5 -15 4 -10 -3 -17 -22 -21 -15 -3 -37 -10 -50 -15 -30 -12 -32 -12
-32 6 0 8 6 15 14 15 8 0 17 7 20 16 5 12 2 15 -9 10 -10 -3 -13 -2 -10 5 4 5
16 7 27 3 17 -5 19 -3 13 15 -4 13 -2 21 5 21 6 0 8 -5 4 -12z"/>
<path d="M3470 550 c0 -146 4 -271 9 -279 7 -11 35 -13 140 -9 72 3 134 8 137
11 4 4 9 126 12 272 l5 265 -64 0 c-35 0 -59 -4 -53 -8 11 -7 14 -52 4 -52 -3
0 -12 6 -19 13 -11 10 -12 9 -6 -2 6 -11 -1 -12 -36 -5 -24 4 -56 8 -71 9 -16
0 -28 3 -28 6 0 3 -7 14 -15 25 -13 17 -14 -11 -15 -246z"/>
<path d="M22 791 c-10 -6 -8 -10 10 -14 40 -11 58 -8 52 8 -7 16 -41 20 -62 6z"/>
<path d="M2636 791 l-90 -6 2 -265 c1 -145 6 -268 11 -273 5 -5 66 -5 142 0
l134 8 0 70 c-1 39 -2 161 -3 273 l-2 202 -52 -2 c-29 -1 -93 -4 -142 -7z"/>
<path d="M2852 793 c-6 -2 -10 -8 -7 -13 3 -4 5 -119 6 -255 0 -135 3 -253 6
-261 6 -16 103 -19 226 -7 l67 6 0 270 c0 259 -6 332 -15 196 -2 -35 -5 -79
-5 -97 0 -20 -4 -31 -10 -27 -5 3 -10 1 -10 -4 0 -6 5 -11 10 -11 6 0 10 -6
10 -14 0 -10 -7 -12 -21 -9 -14 4 -27 0 -35 -11 -15 -21 -34 -13 -34 14 0 22
-10 30 -45 36 -26 5 -32 -5 -14 -23 8 -8 5 -13 -9 -18 -14 -4 -19 -11 -15 -22
5 -12 1 -14 -15 -8 -13 4 -22 2 -22 -4 0 -17 -17 -13 -24 6 -4 10 -1 20 9 26
12 6 13 12 5 22 -8 9 -8 15 0 20 6 3 8 10 5 15 -3 5 -1 11 5 15 5 3 10 23 10
44 0 60 17 99 43 97 12 -1 27 1 32 5 6 4 19 9 30 12 11 2 -23 5 -75 5 -52 0
-101 -2 -108 -5z"/>
<path d="M2070 780 c-63 -3 -107 -7 -97 -8 13 -1 17 -7 12 -22 -3 -10 -1 -28
5 -40 8 -15 8 -20 -2 -20 -10 0 -10 -2 1 -9 8 -5 10 -14 6 -21 -4 -7 -9 -63
-11 -124 -4 -135 -5 -145 -20 -139 -20 7 -24 41 -24 216 0 141 -2 167 -15 167
-12 0 -14 -11 -10 -57 3 -32 7 -151 9 -265 2 -114 7 -211 10 -216 5 -8 275 -7
283 1 8 9 -13 540 -22 542 -5 0 -62 -2 -125 -5z"/>
<path d="M2235 782 c-7 -5 -8 -68 -4 -187 4 -99 7 -219 8 -267 l1 -88 139 0
c77 0 142 4 145 8 2 4 2 128 -1 275 l-6 267 -136 0 c-75 0 -141 -4 -146 -8z"/>
<path d="M1650 770 c0 -13 11 -13 30 0 12 8 11 10 -7 10 -13 0 -23 -4 -23 -10z"/>
<path d="M1892 597 c-1 -110 -6 -186 -11 -183 -5 3 -7 15 -4 26 4 16 2 19 -11
14 -11 -4 -16 -1 -16 12 -1 16 -3 15 -16 -6 -14 -24 -15 -24 -11 -3 4 20 2 22
-19 17 -13 -3 -31 -3 -40 0 -14 5 -14 7 1 22 11 12 13 20 5 29 -8 10 -7 14 2
18 10 4 10 8 -2 16 -9 6 -16 7 -18 1 -2 -6 -10 -10 -18 -10 -8 0 -13 -6 -11
-12 1 -7 -7 -13 -18 -14 -32 -1 -54 -14 -48 -30 3 -8 -1 -14 -9 -14 -10 0 -14
24 -16 103 -1 56 -5 121 -8 145 -9 62 -27 53 -20 -10 3 -29 8 -147 12 -263 3
-116 10 -214 14 -219 9 -9 265 -5 274 4 3 3 2 127 -3 275 l-8 270 -1 -188z
m-165 -143 c-3 -3 -12 -4 -19 -1 -8 3 -5 6 6 6 11 1 17 -2 13 -5z"/>
<path d="M673 762 c-7 -4 -10 -22 -8 -42 2 -19 6 -82 10 -140 3 -58 8 -125 10
-150 2 -25 7 -84 11 -133 l6 -88 136 3 137 3 -2 110 c-1 61 -4 185 -8 278 l-7
167 -137 0 c-75 0 -141 -4 -148 -8z"/>
<path d="M984 764 c-7 -3 -8 -25 -3 -66 4 -34 8 -118 8 -187 1 -122 7 -222 17
-268 4 -23 7 -23 145 -23 l141 0 -6 243 c-4 133 -9 257 -12 275 l-5 32 -137
-1 c-75 0 -142 -3 -148 -5z"/>
<path d="M1295 761 c-6 -11 12 -483 21 -519 5 -22 8 -23 62 -18 31 3 95 5 141
5 l84 1 -6 163 c-4 89 -7 210 -7 270 0 59 -4 107 -9 107 -5 0 -8 -16 -7 -37 1
-31 -4 -39 -32 -54 -18 -10 -34 -19 -37 -19 -3 0 -8 0 -12 0 -4 0 2 -6 12 -14
18 -13 17 -14 -13 -11 -18 1 -35 5 -39 9 -3 3 -15 6 -25 6 -11 0 -18 7 -18 19
0 11 -9 21 -24 25 -18 4 -23 12 -22 36 1 17 6 28 12 26 6 -2 17 0 25 5 9 6 -6
9 -43 9 -31 0 -59 -4 -63 -9z m141 -150 c-4 -6 -15 -10 -24 -10 -15 1 -14 2 1
6 12 3 16 10 12 21 -5 13 -3 14 6 5 6 -6 8 -16 5 -22z"/>
<path d="M148 753 c-26 -4 -27 -7 -23 -46 5 -35 35 -475 35 -499 0 -4 43 -7
96 -7 72 1 97 5 101 15 6 15 -13 411 -23 497 l-6 47 -76 -1 c-43 -1 -89 -4
-104 -6z m27 -92 c9 -18 11 -30 5 -26 -9 5 -10 -9 -6 -56 12 -127 25 -353 21
-358 -3 -2 -7 -2 -9 0 -2 2 -9 105 -15 228 -7 122 -15 230 -18 240 -9 25 2 10
22 -28z m67 -288 c4 -108 2 -135 -9 -144 -17 -15 -20 -1 -15 99 4 96 21 127
24 45z"/>
<path d="M350 729 c0 -83 32 -495 40 -509 7 -13 30 -14 142 -11 73 1 135 5
137 7 2 2 -2 125 -10 274 l-12 270 -149 0 -148 0 0 -31z"/>
<path d="M84 683 c3 -38 10 -140 16 -228 14 -214 20 -259 32 -247 7 7 5 90 -6
259 -9 136 -16 256 -16 266 0 9 -7 17 -16 17 -14 0 -15 -10 -10 -67z"/>
<path d="M1650 740 c0 -5 5 -10 11 -10 5 0 7 5 4 10 -3 6 -8 10 -11 10 -2 0
-4 -4 -4 -10z"/>
<path d="M3015 710 c3 -5 8 -10 11 -10 2 0 4 5 4 10 0 6 -5 10 -11 10 -5 0 -7
-4 -4 -10z"/>
<path d="M3061 697 c2 -1 12 -9 22 -16 14 -12 17 -11 17 3 0 10 -8 16 -22 16
-12 0 -19 -1 -17 -3z"/>
<path d="M1420 670 c0 -5 5 -10 10 -10 6 0 10 5 10 10 0 6 -4 10 -10 10 -5 0
-10 -4 -10 -10z"/>
<path d="M3038 663 c7 -3 16 -2 19 1 4 3 -2 6 -13 5 -11 0 -14 -3 -6 -6z"/>
<path d="M3020 616 c0 -2 7 -7 16 -10 8 -3 12 -2 9 4 -6 10 -25 14 -25 6z"/>
<path d="M4910 260 c-129 -4 -325 -11 -435 -14 -110 -3 -519 -11 -910 -16
-709 -10 -1626 -25 -2080 -35 -132 -2 -395 -7 -585 -11 -190 -3 -381 -7 -425
-8 -44 -2 -120 -4 -170 -5 -62 -1 -85 -4 -75 -11 8 -5 33 -8 55 -6 47 5 482
14 1045 21 583 7 1035 14 1270 20 113 3 385 7 605 10 220 3 454 7 520 10 66 2
316 7 555 10 239 3 478 8 530 10 52 3 154 7 225 11 72 3 134 10 140 15 5 5 1
8 -10 7 -11 -1 -126 -4 -255 -8z"/>
<path d="M5224 212 c-6 -4 -15 -34 -19 -67 -4 -33 -10 -67 -15 -75 -4 -8 -10
-27 -14 -42 -6 -26 -4 -28 23 -28 l29 0 7 93 c8 104 5 130 -11 119z"/>
<path d="M5256 138 c-4 -46 -9 -95 -12 -111 -5 -22 -2 -27 15 -27 17 0 21 6
21 33 0 19 3 68 6 110 6 66 5 77 -8 77 -13 0 -17 -18 -22 -82z"/>
<path d="M4676 162 c-3 -25 -5 -72 -5 -106 1 -49 3 -55 9 -31 l8 30 1 -27 c0
-16 5 -28 10 -28 10 0 21 74 21 151 0 50 -2 58 -19 56 -14 -1 -20 -12 -25 -45z
m21 -19 c-3 -10 -5 -2 -5 17 0 19 2 27 5 18 2 -10 2 -26 0 -35z"/>
<path d="M4980 105 c0 -98 1 -105 20 -105 18 0 20 7 20 74 0 40 3 88 6 105 6
28 4 31 -20 31 l-26 0 0 -105z m17 -42 c-2 -21 -4 -6 -4 32 0 39 2 55 4 38 2
-18 2 -50 0 -70z"/>
<path d="M3645 190 l-170 -5 -1 -92 -1 -93 144 0 143 0 0 90 c0 50 4 90 9 90
6 0 7 -37 4 -90 l-6 -90 62 0 c54 0 65 3 86 25 13 15 26 22 29 16 4 -5 2 -12
-4 -16 -26 -16 -4 -25 60 -25 l70 0 0 100 0 100 -127 -2 c-71 -1 -204 -5 -298
-8z m345 -87 c-1 -13 -40 -59 -40 -48 0 10 31 55 38 55 1 0 2 -3 2 -7z"/>
<path d="M4080 99 c0 -59 4 -99 10 -99 6 0 10 9 10 20 0 11 5 20 10 20 6 0 13
0 17 0 4 0 8 -6 9 -13 2 -27 5 -29 18 -18 7 6 20 9 27 6 11 -4 13 6 11 49 -3
44 1 61 20 88 12 18 28 36 33 41 6 4 -29 7 -77 6 l-88 -2 0 -98z"/>
<path d="M4366 163 c-3 -21 -6 -66 -6 -99 0 -59 1 -61 25 -61 25 0 25 0 25 98
0 90 -2 99 -19 99 -14 0 -20 -10 -25 -37z m21 -51 c-2 -15 -4 -2 -4 28 0 30 2
43 4 28 2 -16 2 -40 0 -56z"/>
<path d="M20 174 c0 -8 5 -12 10 -9 6 4 8 11 5 16 -9 14 -15 11 -15 -7z"/>
<path d="M3178 183 c-16 -4 -18 -17 -18 -94 l0 -89 144 0 145 0 3 91 c2 50 1
93 -1 95 -6 5 -251 3 -273 -3z"/>
<path d="M2605 170 c-40 -3 -59 -9 -58 -17 2 -7 6 -44 9 -83 l7 -70 93 0 c91
0 94 1 94 23 0 12 5 29 10 37 7 12 13 11 34 -10 15 -13 26 -29 26 -37 0 -7 5
-13 10 -13 6 0 10 36 10 89 l0 89 -87 -1 c-49 -1 -115 -4 -148 -7z"/>
<path d="M2862 171 c-10 -6 -12 -26 -9 -77 3 -38 6 -75 6 -81 1 -18 21 -16 21
2 0 8 7 15 15 15 9 0 18 -7 21 -15 5 -12 28 -15 120 -15 l114 0 0 90 0 90
-137 0 c-76 0 -144 -4 -151 -9z"/>
<path d="M55 160 c3 -5 19 -10 36 -10 16 0 29 5 29 10 0 6 -16 10 -36 10 -21
0 -33 -4 -29 -10z"/>
<path d="M2070 162 c-68 -1 -127 -7 -130 -11 -3 -5 -4 -41 -2 -80 l4 -71 139
0 139 0 0 83 c0 61 -3 83 -12 83 -7 -1 -69 -2 -138 -4z"/>
<path d="M2248 165 c-5 -5 2 -157 8 -164 8 -9 54 11 54 23 0 8 10 16 23 19 21
6 21 5 3 -8 -34 -25 -8 -35 95 -35 l99 0 0 85 0 85 -138 0 c-76 0 -141 -2
-144 -5z"/>
<path d="M1635 154 c-6 -2 -9 -35 -7 -79 l4 -75 144 0 145 0 -5 28 c-2 15 -5
51 -5 80 l-1 52 -132 -1 c-73 0 -137 -2 -143 -5z"/>
<path d="M832 143 l-123 -4 3 -67 3 -67 138 -3 138 -3 -3 73 c-2 56 -6 73 -18
73 -8 1 -70 -1 -138 -2z"/>
<path d="M1016 141 c-3 -4 -3 -38 1 -75 l6 -66 138 0 139 0 0 75 0 75 -139 0
c-77 0 -142 -4 -145 -9z"/>
<path d="M1315 93 c5 -98 -2 -93 157 -93 l139 0 -3 75 -3 75 -147 0 -146 0 3
-57z"/>
<path d="M423 133 c-33 -4 -33 -5 -33 -57 0 -28 5 -57 12 -64 8 -8 56 -12 151
-12 l140 0 -7 31 c-3 17 -6 49 -6 70 l0 39 -112 -2 c-62 0 -128 -3 -145 -5z"/>
<path d="M127 124 c-18 -18 -3 -124 17 -124 7 0 10 19 8 57 -4 58 -12 80 -25
67z"/>
<path d="M169 126 c-2 -2 -2 -32 -1 -65 3 -47 7 -61 19 -61 12 0 14 7 9 31 -3
17 -6 47 -6 65 0 30 -8 42 -21 30z"/>
<path d="M205 120 c-4 -6 -3 -35 0 -65 l7 -55 84 0 c94 0 90 -5 78 84 l-7 46
-78 0 c-43 0 -81 -5 -84 -10z"/>
</g>
</svg>
