<?xml version="1.0" standalone="no"?>
<!DOCTYPE svg PUBLIC "-//W3C//DTD SVG 20010904//EN"
 "http://www.w3.org/TR/2001/REC-SVG-20010904/DTD/svg10.dtd">
<svg version="1.0" xmlns="http://www.w3.org/2000/svg"
 width="512.000000pt" height="512.000000pt" viewBox="0 0 512.000000 512.000000"
 preserveAspectRatio="xMidYMid meet">
<metadata>
Created by potrace 1.14, written by Peter Selinger 2001-2017
</metadata>
<g transform="translate(0.000000,512.000000) scale(0.100000,-0.100000)"
fill="#000000" stroke="none">
<path d="M0 2560 l0 -2560 2560 0 2560 0 0 2560 0 2560 -2560 0 -2560 0 0
-2560z m2831 2015 c411 -54 769 -221 1061 -494 76 -71 124 -133 115 -148 -3
-5 24 -44 59 -88 101 -125 164 -220 226 -343 32 -63 68 -122 81 -132 26 -21
85 -163 116 -280 45 -167 55 -257 55 -480 1 -199 -1 -218 -20 -255 -15 -29
-29 -41 -50 -45 -20 -4 -30 -12 -34 -30 -4 -16 -13 -25 -24 -25 -16 0 -24 -19
-46 -105 -46 -181 -120 -380 -142 -380 -5 0 -7 -4 -4 -9 8 -12 -4 -42 -14 -36
-11 7 4 73 33 140 36 85 91 256 112 346 14 59 16 85 8 117 -6 22 -8 94 -5 163
4 105 8 129 26 154 17 24 20 42 18 90 -3 54 -6 62 -31 77 -24 13 -31 27 -41
75 -67 337 -199 628 -385 847 l-59 69 42 38 c23 22 47 39 54 39 23 -1 199
-246 279 -387 53 -95 74 -101 27 -9 -66 133 -273 416 -304 416 -8 0 -35 -19
-60 -42 l-45 -41 -64 63 -65 64 25 14 c23 11 29 11 52 -8 24 -19 27 -19 44 -4
10 9 33 19 51 23 l32 7 -94 82 c-52 45 -100 82 -107 82 -7 0 -52 26 -101 59
-48 32 -123 78 -167 101 -44 24 -94 56 -111 72 -60 56 -332 141 -554 173 -157
23 -493 19 -532 -7 -15 -10 -71 -27 -125 -39 -107 -23 -239 -62 -290 -86 -25
-12 -35 -25 -44 -57 -21 -79 -35 -94 -132 -142 -113 -57 -233 -138 -361 -245
-90 -75 -99 -80 -114 -66 -15 15 -14 19 9 43 89 96 293 244 459 333 118 63
111 67 -10 6 -163 -82 -414 -268 -478 -354 -15 -20 -52 -64 -83 -98 -139 -151
-305 -426 -373 -621 -13 -36 -13 -42 5 -71 21 -35 24 -67 9 -105 -5 -14 -16
-65 -24 -113 -72 -412 -18 -803 160 -1162 34 -69 61 -127 59 -129 -4 -5 -56
86 -113 198 -29 58 -50 94 -46 80 26 -100 277 -517 295 -489 6 9 7 3 3 -18 -5
-28 0 -38 42 -84 74 -79 137 -137 186 -169 23 -16 57 -43 73 -61 33 -36 12
-24 -48 28 -36 32 -57 41 -57 25 0 -8 143 -124 161 -130 5 -2 9 1 9 7 0 6 5
11 11 11 8 0 8 -4 -1 -15 -10 -12 0 -22 57 -58 37 -25 92 -57 122 -73 75 -40
91 -50 104 -63 20 -20 -1 -12 -50 19 -26 17 -50 30 -54 30 -12 0 -154 82 -157
91 -2 5 -9 9 -16 9 -7 0 -21 9 -31 20 -10 11 -25 20 -34 20 -24 0 -162 113
-264 215 -356 357 -557 848 -557 1359 0 464 189 946 501 1282 32 35 59 67 59
72 0 5 39 41 86 81 59 51 83 78 79 89 -3 8 1 25 10 38 8 13 12 29 9 37 -4 10
21 32 78 70 261 174 581 287 933 330 81 10 391 5 486 -8z m-1384 -57 c-3 -8
-6 -5 -6 6 -1 11 2 17 5 13 3 -3 4 -12 1 -19z m1100 -340 c-2 -24 -4 -5 -4 42
0 47 2 66 4 43 2 -24 2 -62 0 -85z m188 27 c-4 -42 -9 -74 -12 -71 -3 2 -2 39
2 81 4 42 10 74 12 71 3 -3 2 -39 -2 -81z m-367 -50 l0 -40 -9 40 c-4 22 -8
60 -7 85 l1 45 8 -45 c4 -25 7 -63 7 -85z m553 28 c-9 -39 -20 -75 -25 -80 -5
-4 -6 1 -3 12 3 11 11 43 17 70 15 65 20 79 24 74 3 -2 -3 -36 -13 -76z m-743
-15 c11 -43 17 -78 13 -78 -4 0 -13 26 -20 58 -7 31 -15 68 -18 82 -13 58 7 9
25 -62z m924 -38 c-14 -39 -27 -68 -30 -66 -6 6 41 136 49 136 3 0 -5 -32 -19
-70z m-1103 -18 c13 -35 21 -66 18 -68 -4 -4 -57 129 -57 144 0 17 19 -20 39
-76z m1277 -69 c-19 -37 -35 -62 -36 -56 0 18 64 146 68 134 2 -5 -13 -40 -32
-78z m-1450 -4 c19 -39 33 -73 31 -75 -4 -5 -77 129 -77 140 0 18 14 -2 46
-65z m1017 42 c242 -51 483 -166 667 -320 101 -84 170 -154 170 -172 0 -9 11
-30 23 -46 102 -123 243 -373 261 -464 2 -8 9 -27 16 -44 6 -16 22 -76 34
-133 21 -102 21 -104 2 -118 -19 -14 -19 -14 2 -14 17 0 22 -6 22 -27 0 -16 7
-41 15 -57 11 -20 15 -54 14 -108 l-2 -78 -36 -5 c-64 -11 -67 -13 -20 -14 41
-1 47 -4 51 -25 3 -14 1 -29 -3 -33 -4 -4 -9 -31 -11 -58 -2 -28 -6 -52 -10
-55 -4 -3 -10 -21 -13 -40 -3 -19 -9 -38 -13 -42 -9 -8 -114 14 -128 27 -7 6
-8 19 -3 32 7 19 12 21 41 13 71 -18 88 -20 88 -12 0 4 -27 14 -60 20 -32 7
-61 16 -64 20 -3 5 -8 61 -11 125 l-7 117 28 1 29 1 -26 9 c-27 10 -35 30 -45
114 -5 41 -16 86 -29 117 -5 13 -1 20 16 27 l24 10 -26 0 c-22 1 -28 8 -39 44
-6 23 -25 71 -41 106 -16 35 -29 67 -29 71 0 4 18 15 40 25 53 24 46 30 -10 8
-41 -17 -44 -17 -54 1 -119 201 -299 406 -441 503 -303 204 -675 270 -1019
182 -147 -37 -348 -130 -428 -198 -13 -10 -51 -42 -85 -70 -126 -104 -253
-281 -331 -461 -46 -107 -90 -286 -97 -390 0 -14 -2 -39 -3 -56 l-2 -32 -82 2
-83 1 -5 35 c-5 31 -1 70 16 148 3 16 12 22 32 23 25 2 25 2 3 6 -23 5 -23 7
-19 79 l5 74 -26 1 -26 1 25 7 c22 6 25 12 24 51 0 25 3 48 8 51 5 3 3 13 -5
21 -10 10 -12 20 -6 29 7 12 11 8 11 -11 0 -3 9 -14 20 -25 l21 -20 -12 22
c-15 28 -14 42 2 23 7 -8 26 -16 42 -17 28 -2 26 -1 -15 20 -36 18 -44 26 -42
45 2 12 7 20 11 18 4 -3 7 9 6 27 -2 24 32 113 51 136 2 2 18 -6 36 -17 18
-11 44 -23 58 -27 l25 -7 -25 19 c-14 10 -37 25 -52 32 -34 17 -35 25 -5 46
12 8 20 18 18 21 -7 10 61 114 70 108 5 -3 9 0 9 5 0 27 165 193 270 272 205
153 483 264 716 285 50 5 90 14 109 26 26 17 43 19 145 14 63 -2 159 -14 213
-25z m601 -118 c-21 -32 -40 -60 -41 -62 -2 -2 -5 -2 -8 0 -2 3 14 33 37 67
22 34 43 61 45 58 3 -2 -13 -30 -33 -63z m-1783 -14 c22 -33 39 -63 36 -65 -4
-4 -16 12 -71 99 -36 54 -6 25 35 -34z m1973 -41 c-17 -28 -88 -108 -92 -104
-2 3 17 30 43 61 45 52 65 70 49 43z m-2121 -78 c26 -32 47 -62 47 -67 -1 -4
-12 6 -26 22 -64 76 -85 105 -77 104 4 0 29 -26 56 -59z m1055 -58 c3 -18 10
-22 40 -23 30 -2 32 -3 10 -6 -40 -6 -34 -21 10 -26 35 -3 35 -4 -9 -5 -25 -1
-49 -5 -53 -9 -4 -5 -27 -9 -51 -9 -23 -1 -69 -4 -101 -7 -33 -3 -50 -3 -38
-1 16 4 20 11 16 34 -4 30 -3 30 44 32 27 1 59 1 72 0 12 0 20 3 17 8 -3 4 -2
16 1 25 9 23 38 14 42 -13z m1172 -37 c-30 -30 -59 -55 -64 -55 -6 0 14 25 44
55 30 30 59 55 64 55 6 0 -14 -25 -44 -55z m-954 12 c1 -20 -4 -27 -17 -27
-19 0 -35 33 -24 50 13 21 40 6 41 -23z m-479 6 c4 -10 11 -21 17 -25 6 -4 0
-8 -14 -8 -43 -1 -52 -12 -39 -51 6 -19 12 -39 14 -45 3 -9 22 -8 72 3 105 24
314 21 441 -6 95 -21 105 -21 121 -7 25 23 38 21 129 -24 117 -56 194 -111
295 -209 311 -302 415 -739 276 -1156 -138 -412 -532 -721 -958 -752 -50 -3
-91 -9 -91 -12 0 -4 5 -12 12 -19 8 -8 8 -15 -2 -27 -10 -13 -26 -15 -79 -10
-36 3 -74 8 -83 11 -21 6 -24 34 -6 52 9 9 6 12 -14 12 -19 0 -27 -6 -32 -25
-5 -21 -12 -25 -39 -24 -65 2 -82 12 -79 46 4 33 -24 55 -40 31 -6 -10 -8 -8
-8 5 0 15 -17 22 -42 18 -5 0 -8 3 -8 8 0 14 -44 21 -53 8 -6 -8 -7 -7 -4 5 4
11 -2 18 -16 22 -12 3 -24 5 -26 5 -2 0 -7 4 -10 9 -3 6 -15 12 -26 14 -11 1
-26 11 -33 21 -7 9 -20 17 -28 17 -8 0 -14 4 -14 9 0 16 -32 22 -49 9 -13 -10
-14 -10 -4 2 10 11 9 17 -4 32 -16 18 -17 18 -42 -4 l-26 -23 19 23 c18 21 18
23 1 42 -10 11 -22 17 -28 13 -5 -3 -7 -2 -4 4 3 5 -12 26 -34 47 -39 39 -39
39 -62 20 l-22 -19 19 22 c18 22 18 23 -10 60 -37 49 -55 71 -74 91 -8 9 -14
18 -12 21 1 3 -5 14 -13 24 -8 9 -12 17 -10 17 3 0 1 9 -5 21 -7 13 -17 18
-27 15 -12 -5 -13 -3 -6 6 12 15 -2 62 -15 54 -5 -3 -7 5 -5 18 3 13 0 27 -6
30 -6 4 -11 16 -11 26 0 10 -8 24 -17 29 -10 6 -13 11 -7 11 14 0 -13 101 -30
112 -8 5 -7 8 2 8 7 0 11 4 8 8 -5 8 -15 74 -18 125 -2 24 -7 27 -38 29 l-35
1 33 4 c32 4 32 5 32 58 0 53 0 54 -32 58 l-33 4 36 1 c32 2 37 5 37 27 0 21
-6 25 -32 27 l-31 1 31 4 c24 3 33 10 37 29 2 14 -1 24 -7 24 -8 0 -8 2 0 8 6
4 14 24 18 45 4 21 9 44 12 52 3 7 -3 15 -13 18 -15 4 -15 5 3 6 28 1 38 37
16 51 -16 10 -16 10 0 8 9 -2 16 0 15 3 -1 3 4 13 11 21 11 14 8 17 -19 27
-18 6 -30 14 -26 17 3 3 15 0 27 -6 18 -10 24 -9 31 1 5 8 7 20 4 27 -2 6 1
12 8 12 10 0 29 32 55 92 2 4 -9 14 -25 23 -15 9 -19 13 -8 10 48 -17 51 -16
64 12 7 15 12 30 11 32 -1 2 4 8 12 12 10 7 7 14 -12 29 -14 11 -20 20 -14 20
6 0 17 -7 24 -15 16 -19 30 -19 30 -1 0 8 6 16 13 19 8 3 3 11 -13 25 -14 12
-21 21 -16 22 5 0 18 -7 28 -17 26 -23 35 -8 12 19 l-19 23 21 -18 c20 -16 22
-16 39 3 18 19 17 21 -1 43 l-19 22 23 -19 c22 -19 22 -19 47 4 21 20 23 26
12 39 -27 31 -30 46 -5 23 15 -14 31 -20 41 -16 21 8 21 18 2 34 -8 7 -15 18
-15 24 0 6 9 0 19 -14 16 -20 22 -22 35 -11 8 7 21 9 27 5 14 -8 4 11 -19 39
-8 9 -13 20 -10 23 3 3 16 -11 28 -30 17 -28 28 -36 51 -36 16 0 29 3 29 6 0
3 -14 26 -31 50 -17 25 -29 47 -27 50 3 2 19 -19 36 -47 29 -45 34 -49 47 -35
13 12 14 20 5 38 l-11 23 18 -23 c12 -15 25 -21 36 -16 22 8 21 16 -4 66 -29
58 -35 97 -14 104 22 9 38 -10 30 -34 -4 -14 -11 -19 -21 -15 -12 4 -9 -7 10
-46 27 -53 32 -56 55 -42 11 7 9 17 -8 56 -28 64 -21 69 8 6 18 -38 27 -47 42
-44 15 4 18 11 13 27 -6 20 -5 20 8 3 13 -18 48 -15 48 4 0 4 7 6 15 3 8 -4
15 -1 15 5 0 6 7 8 15 5 13 -5 12 1 -1 47 -11 37 -13 54 -5 57 6 2 8 8 5 13
-9 15 4 39 21 39 9 0 19 -8 22 -17z m-898 -87 c14 -14 20 -26 15 -26 -5 0 -34
26 -64 57 -48 49 -50 53 -15 26 22 -17 51 -43 64 -57z m964 58 c-3 -9 -9 -12
-12 -7 -3 4 -10 11 -15 16 -5 4 0 7 12 7 15 0 20 -4 15 -16z m340 9 c-7 -2
-19 -2 -25 0 -7 3 -2 5 12 5 14 0 19 -2 13 -5z m291 -29 c8 -21 -1 -34 -25
-34 -12 0 -19 7 -19 18 0 34 33 45 44 16z m-795 -44 c0 -9 -4 -8 -9 5 -5 11
-9 27 -9 35 0 9 4 8 9 -5 5 -11 9 -27 9 -35z m-55 -20 l7 -25 -15 25 c-9 14
-15 32 -15 40 0 13 1 13 8 0 5 -8 12 -26 15 -40z m1766 -4 c0 -9 -121 -98
-126 -93 -3 2 23 25 57 51 63 46 69 50 69 42z m-860 -26 c8 -5 11 -10 5 -10
-5 0 -17 5 -25 10 -8 5 -10 10 -5 10 6 0 17 -5 25 -10z m-1071 -30 c11 -24 11
-24 -3 -6 -9 11 -16 24 -16 30 0 12 5 7 19 -24z m-733 -27 c35 -26 62 -49 59
-51 -4 -4 -135 88 -135 95 0 9 18 -2 76 -44z m2783 -87 c-12 -12 -131 -77
-134 -74 -5 5 116 78 129 78 5 0 7 -2 5 -4z m-728 -23 c13 -16 12 -17 -3 -4
-17 13 -22 21 -14 21 2 0 10 -8 17 -17z m84 -43 c33 -33 57 -60 54 -60 -2 0
-31 27 -64 60 -33 33 -57 60 -54 60 2 0 31 -27 64 -60z m-1624 23 c13 -16 12
-17 -3 -4 -10 7 -18 15 -18 17 0 8 8 3 21 -13z m-616 -30 c35 -20 63 -39 60
-41 -4 -4 -135 67 -135 74 0 8 13 3 75 -33z m530 18 c3 -6 -28 -53 -69 -105
-69 -88 -166 -259 -166 -292 0 -8 -6 -25 -14 -37 -23 -35 -56 -186 -65 -295
-21 -240 31 -488 142 -682 24 -41 25 -46 10 -62 -9 -10 -30 -18 -49 -18 -31 0
-34 4 -77 93 -50 102 -89 214 -108 306 -11 59 -11 62 15 101 25 38 26 48 30
187 4 162 20 250 67 383 17 47 31 93 32 102 1 9 3 15 6 13 2 -3 15 17 29 43
52 99 181 272 202 272 5 0 11 -4 15 -9z m70 -11 c10 -11 16 -20 13 -20 -3 0
-13 9 -23 20 -10 11 -16 20 -13 20 3 0 13 -9 23 -20z m-40 -40 c10 -11 16 -20
13 -20 -3 0 -13 9 -23 20 -10 11 -16 20 -13 20 3 0 13 -9 23 -20z m1720 -40
c10 -11 16 -20 13 -20 -3 0 -13 9 -23 20 -10 11 -16 20 -13 20 3 0 13 -9 23
-20z m56 -27 c13 -16 12 -17 -3 -4 -10 7 -18 15 -18 17 0 8 8 3 21 -13z m639
2 c0 -8 -133 -66 -143 -62 -6 2 104 54 141 66 1 1 2 -1 2 -4z m-649 -32 c13
-16 12 -17 -3 -4 -10 7 -18 15 -18 17 0 8 8 3 21 -13z m-2411 -39 c33 -15 59
-29 57 -31 -2 -2 -35 10 -73 26 -38 17 -64 30 -57 31 6 0 39 -12 73 -26z m536
-9 c10 -8 14 -15 8 -15 -5 0 -19 7 -30 15 -10 8 -14 15 -8 15 5 0 19 -7 30
-15z m-56 -109 c0 -2 -9 -2 -20 1 -11 3 -20 9 -20 15 0 5 9 4 20 -2 11 -6 20
-12 20 -14z m2635 -6 c-11 -5 -27 -9 -35 -9 -9 0 -8 4 5 9 11 5 27 9 35 9 9 0
8 -4 -5 -9z m-85 -25 c-46 -18 -64 -17 -25 0 17 8 37 14 45 14 8 0 -1 -7 -20
-14z m-2595 -15 c3 -5 2 -10 -4 -10 -5 0 -13 5 -16 10 -3 6 -2 10 4 10 5 0 13
-4 16 -10z m-495 -19 c36 -11 56 -20 45 -20 -21 0 -137 36 -120 38 6 0 39 -8
75 -18z m140 -111 c0 -13 -11 -13 -30 0 -12 8 -11 10 8 10 12 0 22 -4 22 -10z
m3085 -20 c-11 -5 -31 -8 -45 -8 -23 0 -22 1 5 8 42 11 65 11 40 0z m-76 -14
c-2 -2 -20 -6 -39 -10 -25 -4 -31 -3 -20 4 14 9 69 15 59 6z m-3164 -47 c29
-6 23 -7 -25 -2 -36 3 -72 9 -80 14 -15 8 31 3 105 -12z m455 -25 c0 -2 -9 -4
-20 -4 -11 0 -20 4 -20 9 0 5 9 7 20 4 11 -3 20 -7 20 -9z m-23 -50 c-3 -3
-12 -4 -19 -1 -8 3 -5 6 6 6 11 1 17 -2 13 -5z m2790 -71 c-20 -2 -52 -2 -70
0 -17 2 0 4 38 4 39 0 53 -2 32 -4z m-3309 -40 c-10 -2 -28 -2 -40 0 -13 2 -5
4 17 4 22 1 32 -1 23 -4z m90 -10 c-10 -2 -28 -2 -40 0 -13 2 -5 4 17 4 22 1
32 -1 23 -4z m2709 -35 c-3 -8 -6 -5 -6 6 -1 11 2 17 5 13 3 -3 4 -12 1 -19z
m440 -94 c-3 -3 -12 -4 -19 -1 -8 3 -5 6 6 6 11 1 17 -2 13 -5z m121 -11 c-10
-2 -28 -2 -40 0 -13 2 -5 4 17 4 22 1 32 -1 23 -4z m-3295 -50 c-13 -2 -33 -2
-45 0 -13 2 -3 4 22 4 25 0 35 -2 23 -4z m450 0 c-7 -2 -19 -2 -25 0 -7 3 -2
5 12 5 14 0 19 -2 13 -5z m4 -119 c-3 -3 -12 -4 -19 -1 -8 3 -5 6 6 6 11 1 17
-2 13 -5z m2746 -21 c-7 -2 -19 -2 -25 0 -7 3 -2 5 12 5 14 0 19 -2 13 -5z
m54 -9 c-3 -3 -12 -4 -19 -1 -8 3 -5 6 6 6 11 1 17 -2 13 -5z m-3220 -30 c-3
-3 -12 -4 -19 -1 -8 3 -5 6 6 6 11 1 17 -2 13 -5z m-54 -11 c-7 -2 -19 -2 -25
0 -7 3 -2 5 12 5 14 0 19 -2 13 -5z m-46 -9 c-3 -3 -12 -4 -19 -1 -8 3 -5 6 6
6 11 1 17 -2 13 -5z m3065 -48 c15 -3 32 -7 38 -11 16 -10 12 -23 -7 -21 -15
1 -18 -8 -17 -56 0 -32 -3 -58 -8 -58 -5 0 -8 -12 -6 -27 2 -16 -1 -28 -7 -28
-5 0 -15 -4 -22 -8 -6 -4 -15 -2 -20 6 -4 7 -27 21 -50 31 -48 21 -56 41 -32
76 9 14 20 41 24 60 10 49 13 51 48 45 18 -3 44 -7 59 -9z m165 -73 c-7 -6
-67 9 -67 17 0 5 16 3 35 -3 19 -6 33 -12 32 -14z m70 -19 c-3 -3 -12 -4 -19
-1 -8 3 -5 6 6 6 11 1 17 -2 13 -5z m-3230 -50 c-3 -3 -12 -4 -19 -1 -8 3 -5
6 6 6 11 1 17 -2 13 -5z m2939 -69 c6 -8 19 -15 28 -15 25 0 14 -24 -13 -28
-21 -3 -21 -5 -7 -21 13 -15 14 -22 3 -44 -15 -34 -27 -35 -27 -2 0 14 -3 25
-8 25 -4 0 -7 -20 -6 -44 2 -48 -8 -56 -70 -56 -16 0 -35 -8 -42 -17 -12 -16
-13 -16 -14 -1 0 12 -13 18 -51 23 -27 4 -47 10 -44 14 4 3 10 6 15 6 4 0 19
12 32 26 14 14 30 28 37 30 8 3 10 14 6 31 -5 21 -14 28 -38 31 -26 3 -25 4 6
3 24 -1 37 3 37 11 0 16 63 17 92 2 15 -8 19 -8 14 0 -5 7 2 11 16 12 l23 0
-22 11 c-13 6 -23 15 -23 19 0 13 44 0 56 -16z m162 -40 c24 -10 41 -19 39
-21 -5 -5 -94 30 -104 40 -9 10 -1 8 65 -19z m-2948 -35 c-8 -5 -19 -10 -25
-10 -5 0 -3 5 5 10 8 5 20 10 25 10 6 0 3 -5 -5 -10z m2870 -146 c0 -2 -16 4
-35 13 -19 9 -35 20 -35 25 0 4 16 -2 35 -13 19 -12 35 -23 35 -25z m50 -30
c0 -2 -9 0 -20 6 -11 6 -20 13 -20 16 0 2 9 0 20 -6 11 -6 20 -13 20 -16z
m109 -142 c-58 -94 -150 -232 -167 -249 -10 -10 -33 -38 -52 -62 -29 -38 -35
-41 -41 -25 -8 23 0 38 108 180 46 60 102 143 125 185 42 75 43 76 46 42 2
-22 -5 -47 -19 -71z m-279 21 c0 -7 -39 17 -46 28 -3 6 5 3 20 -6 14 -10 26
-19 26 -22z m-2870 -74 c15 -28 5 -23 -15 7 -9 15 -12 23 -6 20 6 -4 16 -16
21 -27z m240 -3 c0 -2 -8 -10 -17 -17 -16 -13 -17 -12 -4 4 13 16 21 21 21 13z
m2491 -43 c13 -16 12 -17 -3 -4 -17 13 -22 21 -14 21 2 0 10 -8 17 -17z
m-2671 -43 c12 -16 19 -30 16 -30 -2 0 -14 14 -26 30 -12 17 -19 30 -16 30 2
0 14 -13 26 -30z m2786 -235 c17 -16 11 -35 -10 -35 -22 0 -37 25 -24 38 15
15 16 15 34 -3z m-59 -47 c-3 -8 -6 -5 -6 6 -1 11 2 17 5 13 3 -3 4 -12 1 -19z
m-37 -57 c0 -14 -62 -52 -76 -47 -16 6 -18 22 -4 31 6 3 10 1 10 -4 0 -6 5
-11 10 -11 6 0 10 8 10 19 0 13 7 19 25 19 14 0 25 -4 25 -7z m-141 -138 c-4
-21 -6 -48 -3 -59 7 -29 -27 -60 -129 -116 -178 -98 -281 -140 -357 -144 -79
-4 -83 -2 -66 41 9 20 21 41 28 48 26 24 77 47 91 41 8 -3 18 -1 22 5 3 6 15
11 26 11 11 0 22 7 25 15 4 8 10 13 14 10 5 -3 11 -1 15 5 3 5 15 10 26 10 10
0 24 9 31 20 7 11 23 20 35 20 13 0 23 5 23 11 0 5 5 7 10 4 6 -3 10 3 10 14
0 12 5 21 11 21 5 0 7 -4 4 -10 -3 -5 -4 -10 0 -10 7 0 49 23 55 31 3 3 20 14
38 23 18 9 36 24 39 32 3 7 18 14 33 14 27 0 28 -1 19 -37z m-1815 -179 c9 -3
14 -10 11 -14 -6 -10 -45 -1 -45 11 0 10 12 11 34 3z m561 -192 c0 -13 7 -27
14 -31 21 -13 -1 -19 -37 -9 -18 5 -30 13 -27 17 3 5 -2 11 -10 15 -28 10 -5
37 29 34 25 -2 31 -8 31 -26z m655 18 c0 -5 -11 -10 -25 -10 -14 0 -25 5 -25
10 0 6 11 10 25 10 14 0 25 -4 25 -10z"/>
<path d="M1750 4377 c-14 -7 -26 -20 -28 -30 -3 -16 -1 -17 30 -4 18 7 34 21
36 30 4 20 -4 21 -38 4z"/>
<path d="M3960 3789 c0 -6 22 -41 49 -78 187 -253 282 -476 347 -808 6 -33 44
-31 44 1 0 74 -61 290 -122 435 -82 192 -256 461 -299 461 -10 0 -19 -5 -19
-11z"/>
<path d="M4358 3298 c-16 -5 -28 -14 -28 -20 0 -11 49 -2 63 12 14 13 -6 18
-35 8z"/>
<path d="M4368 3243 c-16 -4 -27 -33 -13 -33 10 0 65 30 65 35 0 6 -27 5 -52
-2z"/>
<path d="M4381 3189 c-16 -6 -21 -13 -14 -20 12 -12 63 5 63 21 0 12 -17 12
-49 -1z"/>
<path d="M4403 3140 c-25 -10 -31 -30 -10 -30 29 0 57 13 57 26 0 16 -15 17
-47 4z"/>
<path d="M712 3093 c2 -10 10 -18 18 -18 8 0 16 8 18 18 2 12 -3 17 -18 17
-15 0 -20 -5 -18 -17z"/>
<path d="M4425 3083 c-29 -7 -41 -21 -23 -28 20 -8 71 12 63 25 -6 10 -8 11
-40 3z"/>
<path d="M690 3017 c0 -19 10 -27 26 -20 21 8 17 33 -6 33 -11 0 -20 -6 -20
-13z"/>
<path d="M4411 3021 c-21 -13 4 -24 39 -16 17 4 30 11 30 16 0 11 -50 12 -69
0z"/>
<path d="M4442 2971 c-26 -7 -31 -26 -7 -25 48 2 56 5 53 16 -5 15 -17 18 -46
9z"/>
<path d="M683 2953 c-18 -6 -16 -30 2 -37 9 -3 18 1 22 10 7 18 -7 33 -24 27z"/>
<path d="M4437 2913 c-16 -15 -5 -24 25 -21 41 4 50 28 11 28 -17 0 -33 -3
-36 -7z"/>
<path d="M670 2865 c-10 -12 -9 -16 5 -21 23 -9 40 10 22 25 -11 9 -17 8 -27
-4z"/>
<path d="M4435 2851 c-3 -5 -1 -12 4 -15 13 -8 71 5 71 15 0 12 -67 11 -75 0z"/>
<path d="M4447 2803 c-15 -15 -5 -23 28 -23 24 0 35 5 35 15 0 15 -50 22 -63
8z"/>
<path d="M4450 2741 c0 -6 4 -12 10 -16 13 -8 61 5 54 16 -7 12 -64 12 -64 0z"/>
<path d="M4450 2680 c0 -5 16 -10 35 -10 19 0 35 5 35 10 0 6 -16 10 -35 10
-19 0 -35 -4 -35 -10z"/>
<path d="M4450 2620 c0 -5 16 -10 35 -10 19 0 35 5 35 10 0 6 -16 10 -35 10
-19 0 -35 -4 -35 -10z"/>
<path d="M4453 2568 c2 -7 16 -13 32 -13 16 0 30 6 33 13 2 8 -8 12 -33 12
-25 0 -35 -4 -32 -12z"/>
<path d="M4450 2510 c0 -5 16 -10 35 -10 19 0 35 5 35 10 0 6 -16 10 -35 10
-19 0 -35 -4 -35 -10z"/>
<path d="M2543 3995 c0 -44 2 -61 4 -37 2 23 2 59 0 80 -2 20 -4 1 -4 -43z"/>
<path d="M2812 4020 c0 -14 2 -19 5 -12 2 6 2 18 0 25 -3 6 -5 1 -5 -13z"/>
<path d="M2216 3998 c10 -51 26 -81 19 -39 -3 18 -5 42 -5 52 0 11 -5 19 -11
19 -7 0 -8 -12 -3 -32z"/>
<path d="M2801 3964 c0 -11 3 -14 6 -6 3 7 2 16 -1 19 -3 4 -6 -2 -5 -13z"/>
<path d="M3070 3955 c0 -8 2 -15 4 -15 2 0 6 7 10 15 3 8 1 15 -4 15 -6 0 -10
-7 -10 -15z"/>
<path d="M2792 3910 c0 -14 2 -19 5 -12 2 6 2 18 0 25 -3 6 -5 1 -5 -13z"/>
<path d="M1941 3860 c18 -32 35 -58 36 -56 7 6 -49 116 -58 116 -6 0 4 -27 22
-60z"/>
<path d="M2241 3904 c0 -11 3 -14 6 -6 3 7 2 16 -1 19 -3 4 -6 -2 -5 -13z"/>
<path d="M2541 3864 c0 -11 3 -14 6 -6 3 7 2 16 -1 19 -3 4 -6 -2 -5 -13z"/>
<path d="M2251 3854 c0 -11 3 -14 6 -6 3 7 2 16 -1 19 -3 4 -6 -2 -5 -13z"/>
<path d="M2781 3854 c0 -11 3 -14 6 -6 3 7 2 16 -1 19 -3 4 -6 -2 -5 -13z"/>
<path d="M3026 3835 c-9 -26 -7 -32 5 -12 6 10 9 21 6 23 -2 3 -7 -2 -11 -11z"/>
<path d="M3312 3815 c-6 -14 -10 -25 -8 -25 2 0 11 11 20 25 9 14 13 25 8 25
-5 0 -14 -11 -20 -25z"/>
<path d="M1690 3794 c0 -10 123 -174 127 -170 4 4 -117 176 -123 176 -2 0 -4
-3 -4 -6z"/>
<path d="M3230 3680 c-6 -11 -8 -20 -6 -20 3 0 10 9 16 20 6 11 8 20 6 20 -3
0 -10 -9 -16 -20z"/>
<path d="M3490 3585 c-41 -41 -70 -74 -65 -74 10 1 153 149 144 149 -2 0 -38
-34 -79 -75z"/>
<path d="M1470 3585 c7 -9 45 -43 84 -77 l71 -62 -75 77 c-41 42 -79 77 -83
77 -5 0 -4 -7 3 -15z"/>
<path d="M3739 3413 c-13 -15 -12 -15 9 -4 23 12 28 21 13 21 -5 0 -15 -7 -22
-17z"/>
<path d="M3635 3344 c-27 -18 -46 -34 -42 -34 10 0 97 59 97 65 0 7 -1 7 -55
-31z"/>
<path d="M1390 3266 c0 -3 9 -10 20 -16 11 -6 20 -8 20 -6 0 3 -9 10 -20 16
-11 6 -20 8 -20 6z"/>
<path d="M3900 3160 c-9 -6 -10 -10 -3 -10 6 0 15 5 18 10 8 12 4 12 -15 0z"/>
<path d="M3840 3135 c-14 -8 -20 -14 -15 -14 6 0 21 6 35 14 14 8 21 14 15 14
-5 0 -21 -6 -35 -14z"/>
<path d="M3978 2873 c7 -3 16 -2 19 1 4 3 -2 6 -13 5 -11 0 -14 -3 -6 -6z"/>
<path d="M3890 2860 c-20 -6 -21 -8 -5 -8 11 0 34 4 50 8 27 7 27 8 5 8 -14 0
-36 -4 -50 -8z"/>
<path d="M1238 2783 c6 -2 18 -2 25 0 6 3 1 5 -13 5 -14 0 -19 -2 -12 -5z"/>
<path d="M3938 2573 c7 -3 16 -2 19 1 4 3 -2 6 -13 5 -11 0 -14 -3 -6 -6z"/>
<path d="M3938 2483 c7 -3 16 -2 19 1 4 3 -2 6 -13 5 -11 0 -14 -3 -6 -6z"/>
<path d="M2535 3730 c-11 -17 5 -32 21 -19 7 6 11 15 8 20 -7 12 -21 11 -29
-1z"/>
<path d="M2370 3575 c-102 -22 -188 -53 -280 -102 -109 -57 -172 -106 -270
-209 -56 -60 -86 -84 -103 -84 -13 0 -31 -8 -39 -17 -14 -16 -51 -81 -53 -93
0 -3 -8 -19 -17 -36 -10 -17 -19 -42 -22 -55 -2 -13 -10 -39 -17 -58 -10 -29
-10 -36 4 -46 15 -11 15 -18 3 -78 -16 -74 -22 -87 -41 -87 -18 0 -25 -23 -25
-89 0 -49 4 -61 25 -79 20 -17 25 -31 25 -66 0 -72 47 -235 97 -335 126 -254
333 -435 598 -521 64 -21 82 -32 95 -55 22 -40 67 -47 245 -42 163 5 252 23
378 77 135 59 191 97 302 205 163 160 263 325 309 507 46 179 46 367 2 411
-14 14 -31 54 -44 105 -48 183 -129 327 -260 461 -123 126 -272 214 -452 268
-71 21 -110 26 -240 29 -108 2 -175 -1 -220 -11z m-592 -935 c4 -99 -6 -112
-87 -118 -57 -4 -61 -3 -61 17 0 17 6 21 30 21 l30 0 0 73 c0 41 3 77 7 81 4
4 23 6 43 4 l35 -3 3 -75z m320 63 c11 -10 43 -55 71 -100 l51 -83 -45 0 c-34
0 -47 5 -55 20 -9 17 -21 20 -74 20 -53 0 -66 -3 -77 -21 -11 -16 -23 -20 -56
-17 l-43 3 59 91 c32 51 65 94 72 97 29 11 78 6 97 -10z m488 -7 c32 -44 2
-96 -56 -96 -24 -1 -22 -3 20 -40 l45 -39 -46 -1 c-39 0 -54 6 -98 41 l-51 41
0 -41 0 -41 -40 0 -40 0 0 101 0 101 126 -3 c110 -4 127 -6 140 -23z m180 -47
l45 -71 43 68 c41 66 45 69 84 72 23 2 42 0 42 -5 -1 -4 -29 -48 -63 -98 -64
-93 -80 -104 -133 -91 -16 4 -44 37 -84 96 -33 49 -60 92 -60 95 0 3 18 5 40
5 39 0 42 -2 86 -71z m344 -29 l0 -100 -40 0 -40 0 0 100 0 100 40 0 40 0 0
-100z m368 78 c3 -15 -8 -18 -80 -20 -66 -2 -83 -6 -83 -18 0 -11 16 -16 66
-20 78 -6 101 -21 97 -64 -4 -45 -35 -56 -155 -56 -96 0 -103 1 -103 20 0 17
8 19 82 22 70 3 83 6 86 21 3 15 -5 17 -60 17 -76 0 -108 18 -108 59 0 51 25
60 160 58 81 -2 95 -5 98 -19z m-1618 -158 c0 -6 -7 -13 -15 -16 -20 -8 -48 3
-40 16 8 13 55 13 55 0z m430 0 c0 -6 -7 -13 -15 -16 -20 -8 -48 3 -40 16 8
13 55 13 55 0z m390 0 c0 -6 -7 -13 -15 -16 -20 -8 -48 3 -40 16 8 13 55 13
55 0z m320 0 c0 -6 -7 -13 -15 -16 -20 -8 -48 3 -40 16 8 13 55 13 55 0z m190
0 c0 -6 -7 -13 -15 -16 -20 -8 -48 3 -40 16 8 13 55 13 55 0z m370 0 c0 -6 -7
-13 -15 -16 -20 -8 -48 3 -40 16 8 13 55 13 55 0z"/>
<path d="M2022 2635 c-16 -35 -16 -35 18 -35 32 0 38 14 16 43 -17 22 -21 22
-34 -8z"/>
<path d="M2407 2673 c-4 -3 -7 -16 -7 -28 0 -21 4 -22 48 -18 53 6 67 15 59
37 -5 11 -20 16 -50 16 -24 0 -47 -3 -50 -7z"/>
<path d="M2260 1471 c0 -12 6 -21 13 -21 6 0 23 -3 35 -7 21 -5 23 -3 20 18
-2 19 -10 25 -35 27 -28 3 -33 0 -33 -17z"/>
<path d="M2536 1442 c-2 -4 -1 -14 4 -22 7 -11 12 -12 21 -3 6 6 8 16 5 22 -8
13 -23 14 -30 3z"/>
<path d="M1304 2376 c-7 -19 29 -160 67 -255 45 -116 80 -175 107 -179 37 -6
35 22 -8 107 -42 85 -93 229 -105 300 -6 35 -10 41 -31 41 -14 0 -27 -6 -30
-14z"/>
</g>
</svg>
