<?xml version="1.0" standalone="no"?>
<!DOCTYPE svg PUBLIC "-//W3C//DTD SVG 20010904//EN"
 "http://www.w3.org/TR/2001/REC-SVG-20010904/DTD/svg10.dtd">
<svg version="1.0" xmlns="http://www.w3.org/2000/svg"
 width="16.000000pt" height="16.000000pt" viewBox="0 0 16.000000 16.000000"
 preserveAspectRatio="xMidYMid meet">
<metadata>
Created by potrace 1.11, written by Peter Selinger 2001-2013
</metadata>
<g transform="translate(0.000000,16.000000) scale(0.004000,-0.004000)"
fill="#000000" stroke="none">
<path d="M2705 3805 c-4 -22 -13 -96 -19 -165 l-11 -125 -47 77 c-39 64 -49
89 -54 144 l-7 65 -76 -6 c-42 -4 -96 -11 -120 -15 -25 -4 -49 -7 -55 -6 -6 2
-8 1 -3 -1 13 -8 8 -93 -5 -93 -9 0 -8 -4 2 -10 8 -5 40 -10 70 -10 30 0 62
-5 70 -10 10 -6 11 -10 3 -10 -7 0 -13 -7 -13 -15 0 -8 -4 -15 -8 -15 -4 0
-13 -12 -20 -27 -24 -53 -43 -82 -73 -113 -26 -25 -38 -30 -80 -30 l-49 0 6
-117 c4 -65 12 -121 17 -125 7 -4 7 -12 -2 -22 -11 -13 -9 -13 12 -3 14 6 23
16 20 22 -3 5 0 4 8 -3 12 -11 12 -14 0 -21 -9 -6 -11 -15 -6 -27 13 -31 14
-45 2 -37 -18 11 -57 13 -57 2 0 -13 -26 -11 -38 4 -6 7 -23 14 -37 15 -14 1
-34 6 -43 11 -9 4 -43 5 -74 2 -52 -6 -58 -5 -58 11 0 10 4 18 8 18 5 0 9 14
10 31 0 23 -3 29 -14 25 -20 -8 -18 11 4 24 16 11 16 11 -1 6 -11 -4 -17 -1
-16 7 5 26 -36 128 -63 158 -31 33 -25 33 -141 11 -33 -6 -59 -19 -83 -43 -41
-39 -68 -85 -59 -99 4 -6 -1 -13 -10 -16 -22 -9 -45 -57 -45 -96 0 -48 -9 -72
-30 -86 -18 -11 -23 -6 -50 41 -16 28 -30 60 -30 70 0 10 -4 16 -9 13 -5 -3
-21 11 -37 31 -73 96 -170 191 -182 178 -3 -2 10 -21 29 -42 19 -21 56 -67 84
-103 l49 -65 -44 36 c-46 36 -82 59 -97 59 -4 0 17 -25 47 -55 29 -30 51 -57
47 -61 -3 -4 -2 -15 4 -25 7 -15 6 -17 -6 -13 -16 7 -17 -19 -2 -43 5 -7 5
-13 0 -13 -4 0 6 -9 23 -20 29 -19 63 -74 52 -85 -2 -3 -23 11 -46 31 -40 34
-46 46 -66 137 -4 16 -11 25 -17 21 -6 -3 -13 3 -16 15 -6 22 -23 29 -23 10 0
-7 -9 0 -21 15 -27 34 -38 26 -37 -27 1 -34 8 -50 37 -81 29 -31 31 -35 10
-22 -14 8 -35 29 -47 46 -27 36 -46 40 -36 8 6 -22 6 -22 -13 -5 -23 20 -37
22 -30 4 4 -10 -2 -13 -19 -9 -24 4 -33 -11 -13 -24 8 -4 7 -9 -2 -15 -11 -7
-9 -10 8 -15 13 -4 20 -11 16 -19 -3 -10 7 -15 34 -17 l38 -3 -32 -21 c-33
-21 -34 -34 -2 -34 9 0 19 -6 21 -12 4 -10 11 -10 34 0 22 10 26 10 17 1 -10
-10 -8 -16 7 -29 18 -15 17 -16 -9 -28 -28 -12 -36 -37 -19 -59 6 -8 6 -25 -2
-48 -13 -38 -34 -44 -86 -25 -40 15 -115 -12 -154 -56 -29 -33 -31 -43 -36
-134 -4 -86 -2 -81 -24 -68 -28 18 -52 -15 -45 -63 2 -19 14 -132 25 -250 74
-768 80 -882 69 -1199 -8 -216 -18 -288 -38 -275 -6 3 -15 -4 -21 -15 -6 -11
-17 -20 -24 -20 -19 0 -67 -26 -77 -42 -14 -22 -10 -72 9 -94 32 -39 137 -87
192 -87 8 0 20 -3 25 -7 10 -8 172 -35 270 -45 28 -3 165 -8 305 -12 336 -7
697 11 920 48 36 6 85 13 110 16 36 4 199 35 363 70 15 3 27 9 27 13 0 4 17
11 38 14 52 10 123 37 151 58 13 10 32 18 41 18 16 0 100 81 100 96 0 33 -79
104 -116 104 -11 0 -25 5 -31 11 -5 5 -26 11 -46 12 -19 1 -32 6 -29 11 3 5
-5 7 -16 4 -22 -6 -32 7 -12 14 7 2 6 25 -4 68 -38 167 -47 679 -21 1235 8
176 15 341 15 367 0 40 3 46 17 41 13 -5 15 -3 9 12 -6 18 -6 18 12 2 19 -17
47 -24 38 -9 -3 5 9 6 27 4 l32 -5 -22 25 c-29 31 -29 40 1 32 31 -7 55 4 35
17 -10 6 -5 9 16 9 20 0 26 3 17 9 -11 7 -10 9 3 15 21 8 10 26 -17 26 -17 0
-18 2 -8 15 15 19 -1 20 -33 4 -18 -9 -20 -9 -9 2 27 29 9 29 -43 -1 -60 -34
-76 -35 -21 -1 20 13 36 32 39 49 3 15 9 35 12 45 9 22 -17 23 -35 2 -11 -13
-15 -13 -22 -3 -7 10 -11 9 -23 -6 -7 -10 -19 -15 -24 -11 -7 4 -19 -12 -30
-38 -22 -51 -85 -107 -120 -107 l-25 0 29 30 c16 17 36 30 45 30 8 0 23 9 33
20 9 11 14 20 11 20 -4 0 -1 7 6 15 10 12 9 15 -6 15 -14 0 -15 3 -6 12 7 7
12 25 12 41 0 22 -4 28 -15 23 -24 -9 -17 12 10 30 14 9 23 19 21 23 -16 25
90 81 154 81 36 0 104 -50 119 -89 8 -17 17 -29 21 -26 4 3 11 -2 14 -11 3 -8
10 -13 15 -9 5 3 12 1 16 -5 12 -20 25 -10 19 15 -6 25 1 30 35 26 7 -2 10 2
6 8 -4 7 0 8 10 5 13 -5 15 -2 9 20 -7 28 4 34 24 14 10 -10 15 -10 21 1 5 8
15 11 23 8 8 -3 21 -1 29 3 11 7 7 16 -20 42 -25 25 -46 34 -85 40 -44 6 -41
6 22 4 39 -2 72 1 72 5 0 5 -6 9 -12 10 -7 0 0 5 16 11 21 8 25 13 15 19 -11
7 -10 11 6 23 20 16 20 16 -2 22 -13 3 -20 11 -16 17 4 7 0 8 -12 3 -10 -4
-21 -2 -25 4 -4 7 -17 3 -35 -12 l-28 -22 7 37 c7 39 -3 48 -24 22 -10 -12
-15 -13 -21 -4 -4 8 -12 2 -21 -16 l-15 -28 -6 25 c-4 13 -5 34 -2 46 3 15 -1
20 -16 19 -10 -1 -19 -5 -19 -10 0 -4 -4 -6 -9 -3 -5 4 -11 0 -14 -6 -2 -7 -8
-1 -12 15 -7 28 -25 37 -25 13 0 -8 -5 -16 -12 -18 -7 -3 -12 -29 -13 -64 -3
-63 -16 -107 -37 -121 -26 -16 -129 -41 -125 -29 2 6 16 54 31 106 37 130 89
180 185 180 23 0 41 4 41 9 0 5 9 11 21 14 12 3 18 10 15 15 -3 5 3 12 14 15
11 3 20 10 20 15 0 14 -61 21 -85 10 -20 -9 -20 -9 -1 6 11 9 24 16 29 16 5 0
7 6 4 14 -3 7 0 19 6 25 8 8 8 11 0 11 -7 0 -9 9 -5 23 5 20 4 21 -13 7 -10
-8 -16 -10 -12 -3 5 7 -4 6 -23 -3 -16 -9 -30 -22 -30 -30 0 -8 -4 -14 -10
-14 -5 0 -10 10 -10 23 -1 20 -2 21 -14 5 -7 -10 -18 -18 -23 -18 -13 0 -24
-33 -28 -87 -2 -39 -41 -111 -53 -99 -11 12 -1 96 17 138 10 24 37 61 60 83
46 44 52 60 19 49 -22 -6 -21 -5 5 23 30 33 36 56 10 46 -13 -5 -15 -3 -8 13
27 65 9 86 -35 39 -12 -13 -26 -22 -30 -20 -14 9 -31 -23 -45 -87 l-15 -63 5
55 c2 30 7 73 11 95 l7 40 -21 -19 c-21 -18 -21 -18 -15 18 6 37 -9 51 -21 19
-6 -15 -9 -14 -19 7 -18 35 -37 37 -37 3 -1 -27 -1 -27 -15 -9 -14 18 -15 18
-15 2 0 -9 5 -27 11 -39 9 -18 9 -20 -2 -9 -38 36 -34 -25 5 -68 33 -37 56
-72 56 -89 0 -8 -11 6 -23 30 -13 24 -31 44 -39 44 -8 0 -22 5 -29 11 -43 34
-63 19 -33 -24 14 -20 14 -22 -3 -22 -14 -1 -10 -8 17 -31 19 -16 27 -27 18
-23 -34 12 -18 -15 26 -46 25 -16 53 -42 64 -58 21 -30 47 -101 39 -108 -10
-10 -66 57 -72 88 -7 30 -45 82 -45 62 0 -5 -5 -1 -11 9 -14 24 -29 21 -29 -5
-1 -21 -2 -21 -11 -5 -13 23 -51 37 -78 30 -18 -5 -19 -8 -9 -21 11 -13 10
-15 -4 -9 -18 6 -21 0 -44 -95 -6 -26 -24 -40 -24 -18 0 6 -4 10 -9 10 -6 0
-12 -17 -15 -37 -2 -21 -2 21 0 92 2 72 8 157 14 189 5 33 8 62 5 64 -8 8 -26
-50 -39 -132 -18 -103 -19 -64 -5 141 11 163 9 222 -6 148z m135 -390 c0 -8 8
-15 18 -16 14 0 14 -2 -3 -9 -32 -14 -45 -11 -45 8 0 10 3 22 7 25 11 12 23 8
23 -8z m10 -69 c0 -2 -7 -9 -15 -16 -12 -10 -15 -10 -15 4 0 9 7 16 15 16 8 0
15 -2 15 -4z m30 -26 c0 -6 11 -8 25 -4 14 3 25 3 25 0 0 -19 -72 -116 -86
-116 -15 0 -15 2 0 25 21 32 21 66 1 58 -13 -5 -14 -2 -4 21 12 25 39 36 39
16z m160 -23 c56 -27 60 -51 29 -145 -23 -71 -63 -157 -77 -166 -4 -2 -14 -1
-22 5 -12 7 -11 9 5 9 15 0 17 3 7 9 -11 6 -10 10 4 15 9 3 14 9 10 13 -3 3 1
14 10 24 14 16 13 17 -18 14 -18 -2 -35 -5 -38 -6 -3 -1 -11 -2 -18 -3 -7 0
-17 -8 -22 -16 -5 -8 -12 -11 -17 -7 -4 5 10 43 32 85 53 101 53 102 13 65
-42 -40 -69 -45 -39 -7 12 15 21 33 21 41 0 28 40 93 58 93 9 -1 37 -11 62
-23z m300 -87 c0 -5 -5 -10 -11 -10 -5 0 -7 5 -4 10 3 6 8 10 11 10 2 0 4 -4
4 -10z m-542 -57 c-27 -47 -28 -49 -28 -37 0 11 38 74 45 74 2 0 -5 -17 -17
-37z m-71 -10 c-3 -10 -5 -4 -5 12 0 17 2 24 5 18 2 -7 2 -21 0 -30z m693 23
c0 -2 -8 -10 -17 -17 -16 -13 -17 -12 -4 4 13 16 21 21 21 13z m-120 -31 c0
-7 -73 -55 -84 -55 -14 0 26 41 49 51 24 9 35 11 35 4z m-957 -75 c3 -11 1
-18 -4 -14 -5 3 -9 12 -9 20 0 20 7 17 13 -6z m-863 -94 c16 -36 26 -66 22
-66 -5 0 -23 15 -41 34 -32 33 -55 95 -44 123 7 19 24 -6 63 -91z m1808 87
c-16 -2 -40 -2 -55 0 -16 2 -3 4 27 4 30 0 43 -2 28 -4z m-510 -65 c-6 -18
-13 -27 -15 -21 -4 11 13 53 22 53 2 0 -1 -15 -7 -32z m-1453 -12 c28 -13 26
-14 -42 -12 -62 1 -68 3 -50 13 28 16 55 15 92 -1z m115 -75 c31 -27 33 -30
14 -31 -37 0 -108 -30 -135 -56 -23 -22 -27 -23 -39 -9 -7 8 -20 15 -29 15
-10 0 -6 7 13 19 19 13 39 18 56 15 38 -8 57 18 43 56 -8 21 -8 30 1 33 14 6
33 -5 76 -42z m1416 -24 l-21 -43 -11 26 c-13 31 2 60 32 60 l21 0 -21 -43z
m-1106 -8 c0 -6 -4 -7 -10 -4 -5 3 -10 11 -10 16 0 6 5 7 10 4 6 -3 10 -11 10
-16z m1125 -127 c-4 -24 -9 -31 -15 -23 -4 8 -12 11 -17 8 -16 -10 -1 57 16
70 20 15 26 -4 16 -55z m218 -39 c-7 -2 -21 -2 -30 0 -10 3 -4 5 12 5 17 0 24
-2 18 -5z m-1412 -56 c-7 -7 -18 -7 -38 3 l-28 14 35 5 c37 6 50 -3 31 -22z
m1317 15 c3 -9 -2 -13 -14 -10 -9 1 -19 9 -22 16 -3 9 2 13 14 10 9 -1 19 -9
22 -16z m-2018 -37 c0 -8 -4 -15 -10 -15 -5 0 -10 7 -10 15 0 8 5 15 10 15 6
0 10 -7 10 -15z m645 5 c-3 -6 1 -7 9 -4 19 7 20 0 5 -27 -8 -16 -13 -18 -25
-9 -7 7 -11 16 -8 21 3 5 -1 9 -8 9 -9 0 -9 3 2 10 20 13 33 13 25 0z m310
-99 c-3 -6 -11 -8 -17 -5 -6 4 -5 9 3 15 16 10 23 4 14 -10z"/>
<path d="M2051 3696 c-16 -19 8 -35 42 -29 19 4 27 11 25 22 -4 19 -53 25 -67
7z"/>
<path d="M2181 3611 c-14 -12 -20 -25 -15 -32 4 -7 3 -9 -3 -6 -6 4 -14 0 -17
-9 -4 -11 -2 -15 8 -11 10 4 13 1 10 -8 -3 -8 -21 -17 -40 -21 -28 -5 -32 -9
-23 -20 17 -20 67 -17 100 6 33 24 49 81 29 105 -16 19 -22 19 -49 -4z"/>
<path d="M2117 3149 c7 -7 15 -10 18 -7 3 3 -2 9 -12 12 -14 6 -15 5 -6 -5z"/>
</g>
</svg>
