<?xml version="1.0" standalone="no"?>
<!DOCTYPE svg PUBLIC "-//W3C//DTD SVG 20010904//EN"
 "http://www.w3.org/TR/2001/REC-SVG-20010904/DTD/svg10.dtd">
<svg version="1.0" xmlns="http://www.w3.org/2000/svg"
 width="700.000000pt" height="700.000000pt" viewBox="0 0 700.000000 700.000000"
 preserveAspectRatio="xMidYMid meet">
<metadata>
Created by potrace 1.11, written by Peter Selinger 2001-2013
</metadata>
<g transform="translate(0.000000,700.000000) scale(0.100000,-0.100000)"
fill="#000000" stroke="none">
<path d="M176 6985 c-54 -19 -106 -63 -141 -120 l-30 -48 -3 -1379 -2 -1378
1520 0 1520 0 0 -810 0 -810 -179 0 -178 0 -17 -44 c-19 -51 -89 -120 -144
-143 -51 -22 -147 -22 -204 0 -62 24 -130 98 -153 166 -45 135 31 287 168 338
18 6 57 11 87 11 103 0 188 -51 235 -141 l30 -57 118 0 117 0 -2 678 -3 677
-1457 3 -1458 2 0 -680 0 -680 580 0 580 0 2 -843 3 -842 1135 0 1135 0 3 343
2 342 370 0 369 0 19 43 c23 51 79 108 130 133 54 26 153 30 209 9 143 -55
213 -223 149 -360 -47 -101 -132 -156 -240 -156 -111 0 -195 50 -242 147 l-26
54 -307 -2 -306 -3 -3 -337 -2 -338 -1265 0 -1265 0 0 840 0 840 -515 0 -515
0 2 -1128 3 -1129 30 -48 c35 -57 100 -110 153 -125 25 -7 714 -10 2115 -10
l2077 0 0 525 0 525 248 0 247 0 24 50 c82 172 320 204 444 60 151 -176 30
-439 -203 -440 -112 0 -201 58 -246 159 l-18 41 -183 0 -183 0 0 -460 0 -460
1153 2 1154 3 48 30 c57 35 110 100 125 153 6 25 10 568 10 1645 l0 1607 -452
-2 -453 -3 -3 -612 -2 -613 49 -24 c171 -87 211 -291 84 -427 -55 -59 -115
-84 -198 -83 -143 2 -251 105 -263 251 -4 56 -1 70 28 129 32 66 75 107 140
134 l30 12 0 619 0 619 -787 0 -788 0 -911 911 -911 911 -52 -18 c-71 -23
-165 -15 -223 19 -237 139 -142 499 132 499 192 0 328 -209 245 -375 l-16 -31
898 -898 898 -898 1278 0 1277 0 0 435 0 435 -727 0 -728 0 -845 845 -845 845
-1073 0 -1072 0 0 -780 0 -780 224 0 223 0 17 44 c21 54 97 128 152 147 61 21
152 16 206 -10 142 -68 196 -235 121 -373 -46 -85 -134 -136 -233 -136 -103 0
-188 51 -235 141 l-30 57 -287 0 -288 0 0 905 0 905 1168 0 1167 0 840 -840
840 -840 703 0 702 0 -2 1128 -3 1129 -30 48 c-35 57 -100 110 -153 125 -25 7
-1087 10 -3317 10 -2763 -1 -3286 -3 -3319 -15z m3437 -1248 c129 -54 192
-224 131 -352 l-17 -36 64 -67 c36 -37 167 -176 293 -309 l228 -242 31 16 c46
24 151 22 208 -4 94 -42 150 -125 157 -231 17 -251 -293 -380 -461 -192 -22
23 -46 58 -54 78 -21 50 -20 139 2 199 l18 51 -258 274 c-142 150 -272 288
-289 305 l-31 32 -45 -15 c-65 -23 -166 -14 -222 19 -217 127 -161 450 85 496
54 10 100 4 160 -22z m-1099 -1987 c100 -38 176 -146 176 -250 0 -60 -36 -143
-81 -189 -132 -132 -352 -92 -433 78 l-21 46 -223 3 -222 2 0 -935 0 -935 223
0 223 0 18 40 c25 56 60 96 115 128 40 24 56 27 131 27 74 0 91 -3 130 -27 55
-32 81 -60 109 -114 90 -174 -41 -386 -239 -386 -107 0 -220 75 -249 165 l-13
37 -289 0 -289 0 0 1060 0 1060 287 2 288 3 13 30 c38 82 91 133 169 161 55
19 114 17 177 -6z m1080 0 c100 -38 176 -146 176 -250 0 -96 -68 -200 -159
-243 l-46 -22 -3 -333 -2 -332 310 0 310 0 14 34 c38 91 147 166 243 166 161
0 282 -126 271 -282 -10 -150 -119 -252 -268 -251 -109 0 -196 57 -240 156
l-21 47 -369 0 -370 0 -2 397 -3 398 -46 22 c-91 43 -159 147 -159 243 0 102
76 212 173 249 67 26 123 26 191 1z m1668 -1573 c129 -66 183 -221 122 -349
l-17 -36 258 -279 c142 -153 261 -281 265 -286 4 -4 23 -1 43 8 50 21 152 19
203 -4 102 -46 158 -133 159 -246 0 -110 -53 -195 -150 -241 -65 -31 -161 -32
-225 -3 -131 59 -191 206 -140 340 l19 52 -31 36 c-52 59 -490 531 -494 531
-1 0 -30 -7 -64 -16 -104 -26 -195 1 -267 79 -124 135 -78 344 92 423 75 36
147 33 227 -9z"/>
<path d="M3470 5632 c-59 -10 -110 -74 -110 -138 0 -41 29 -92 65 -114 68 -42
166 -15 199 54 50 106 -36 218 -154 198z"/>
<path d="M4380 4622 c-47 -25 -83 -94 -75 -142 17 -97 120 -149 206 -105 71
37 93 145 42 206 -49 57 -113 72 -173 41z"/>
<path d="M2352 3620 c-94 -57 -94 -183 0 -240 87 -53 208 17 208 120 0 71 -69
140 -140 140 -19 0 -50 -9 -68 -20z"/>
<path d="M2345 1620 c-113 -74 -65 -250 68 -252 109 -2 177 100 132 195 -34
72 -134 100 -200 57z"/>
<path d="M3432 3620 c-94 -57 -94 -183 0 -240 117 -71 259 71 188 188 -26 42
-76 72 -120 72 -19 0 -50 -9 -68 -20z"/>
<path d="M4385 2628 c-70 -39 -97 -104 -70 -174 39 -103 160 -123 235 -38 24
28 30 44 30 82 0 56 -26 104 -69 127 -35 17 -97 19 -126 3z"/>
<path d="M5072 2061 c-66 -42 -88 -114 -54 -180 50 -99 177 -105 239 -12 39
57 27 126 -31 180 -36 34 -110 39 -154 12z"/>
<path d="M5952 1100 c-85 -52 -79 -190 10 -236 69 -36 154 -11 189 56 23 43
24 81 3 126 -33 70 -132 96 -202 54z"/>
<path d="M2390 5632 c-38 -6 -81 -41 -96 -78 -40 -96 23 -194 126 -194 111 0
177 122 116 215 -26 40 -94 67 -146 57z"/>
<path d="M2364 4626 c-58 -26 -95 -100 -80 -161 4 -14 22 -43 41 -63 32 -35
37 -37 95 -37 58 0 63 2 95 37 19 20 37 49 41 63 15 62 -22 136 -82 161 -41
17 -70 17 -110 0z"/>
<path d="M2364 2631 c-27 -12 -72 -66 -80 -97 -17 -66 29 -145 97 -165 77 -24
160 27 175 106 9 49 -1 80 -39 122 -28 30 -41 36 -83 39 -27 2 -58 0 -70 -5z"/>
<path d="M5975 2070 c-75 -31 -107 -134 -63 -200 63 -94 190 -88 240 11 23 45
23 86 -2 127 -37 60 -114 88 -175 62z"/>
<path d="M4350 1603 c-49 -50 -59 -99 -31 -156 25 -52 70 -80 127 -80 134 0
185 184 71 253 -20 13 -50 20 -81 20 -43 0 -53 -4 -86 -37z"/>
<path d="M5065 1100 c-146 -96 -13 -317 143 -236 89 46 95 184 10 236 -43 26
-113 26 -153 0z"/>
</g>
</svg>
